 <svg version="1.0" xmlns="http://www.w3.org/2000/svg"  width="512.000000pt" height="512.000000pt" viewBox="0 0 512.000000 512.000000"  preserveAspectRatio="xMidYMid meet"> <g transform="translate(0.000000,512.000000) scale(0.100000,-0.100000)" fill="#000000" stroke="none"> <path d="M3390 4824 c-100 -26 -161 -63 -246 -148 -58 -59 -91 -101 -117 -153 -62 -126 -63 -142 -41 -524 8 -136 -4 -174 -103 -321 -150 -223 -529 -707 -974 -1243 -186 -223 -1626 -2075 -1617 -2079 2 0 15 -12 30 -25 l27 -24 68 59 c37 32 477 424 979 869 l912 810 368 251 c564 383 928 620 1040 677 115 58 210 69 364 42 367 -65 639 70 735 364 24 75 23 207 -4 292 -40 127 -144 251 -256 303 -149 71 -288 74 -443 9 l-64 -26 -50 50 -50 50 20 39 c56 109 69 268 32 386 -78 253 -357 409 -610 342z m247 -300 c162 -94 124 -346 -67 -446 -36 -18 -61 -23 -122 -23 -69 0 -80 3 -120 30 -61 44 -92 104 -92 180 1 207 232 357 401 259z m798 -589 c164 -43 287 -181 314 -352 28 -177 -69 -367 -229 -448 -110 -56 -277 -70 -441 -39 -55 11 -115 15 -174 12 -147 -8 -210 -41 -688 -355 -137 -90 -257 -168 -267 -173 -30 -16 -50 -2 -50 36 0 63 16 79 178 176 320 189 568 359 626 429 43 51 72 116 116 265 51 169 81 232 141 298 122 132 312 193 474 151z m-635 -120 l44 -44 -27 -54 c-14 -30 -45 -117 -68 -193 -68 -229 -84 -251 -260 -376 -228 -162 -853 -531 -922 -543 -52 -10 -77 13 -77 71 0 39 13 60 183 291 425 576 537 707 650 758 29 14 96 33 147 44 101 21 189 49 236 75 41 22 45 21 94 -29z m-1150 -1331 c-19 -115 -27 -127 -124 -194 -53 -36 -85 -53 -81 -43 17 45 44 164 50 218 l6 61 32 -4 c18 -1 52 3 77 11 25 8 46 13 47 12 1 -1 -2 -28 -7 -61z m-571 -290 c27 -35 26 -66 -2 -100 -31 -35 -77 -37 -112 -4 -51 48 -16 130 55 130 30 0 43 -6 59 -26z m-290 -183 c28 -35 51 -72 51 -83 0 -10 -48 -100 -107 -200 l-108 -182 -488 -434 c-269 -239 -490 -432 -492 -430 -6 6 1080 1405 1087 1399 3 -3 29 -35 57 -70z"/> <path d="M4258 3819 c-117 -17 -227 -98 -279 -205 -93 -189 19 -393 231 -423 163 -22 320 60 391 205 113 229 -77 462 -343 423z m182 -107 c138 -68 155 -256 32 -363 -176 -155 -445 -76 -445 130 0 99 54 180 154 232 87 44 170 44 259 1z"/> </g> </svg>
