 <svg version="1.0" xmlns="http://www.w3.org/2000/svg"  width="512.000000pt" height="512.000000pt" viewBox="0 0 512.000000 512.000000"  preserveAspectRatio="xMidYMid meet"> <g transform="translate(0.000000,512.000000) scale(0.100000,-0.100000)" fill="#000000" stroke="none"> <path d="M859 4670 c-48 -25 -96 -81 -109 -127 -5 -21 -64 -420 -131 -888 -98 -695 -119 -856 -111 -888 20 -77 83 -140 159 -158 21 -5 158 -9 306 -9 l267 0 0 28 c0 15 27 466 60 1002 33 536 60 994 60 1018 l0 42 -232 0 c-209 -1 -237 -3 -269 -20z"/> <path d="M1536 4678 c-2 -7 -29 -440 -61 -963 -31 -522 -59 -987 -62 -1032 l-6 -83 492 0 491 0 0 1045 0 1045 -425 0 c-332 0 -426 -3 -429 -12z"/> <path d="M2560 3645 l0 -1045 471 0 470 0 -6 68 c-3 37 -30 474 -60 972 -30 498 -57 938 -60 978 l-7 72 -404 0 -404 0 0 -1045z"/> <path d="M3545 4628 c3 -35 30 -470 60 -968 30 -498 57 -940 61 -982 l6 -78 38 0 37 0 6 75 c4 41 14 92 23 113 9 20 22 63 30 95 51 211 227 357 429 357 45 0 65 4 65 13 0 6 -41 298 -90 647 -100 702 -100 699 -179 755 l-43 30 -224 3 -225 3 6 -63z"/> <path d="M4157 3056 c-65 -24 -137 -81 -137 -110 0 -3 101 -6 225 -6 124 0 225 4 225 9 0 22 -46 62 -102 90 -69 35 -144 41 -211 17z"/> <path d="M3952 2747 c-20 -21 -22 -34 -22 -155 0 -73 3 -132 6 -132 3 0 135 54 292 121 158 67 298 125 311 130 l24 10 -23 24 -23 25 -272 0 c-271 0 -272 0 -293 -23z"/> <path d="M4235 2400 l-300 -127 -3 -132 c-1 -72 1 -131 5 -130 4 0 148 60 318 132 l310 132 3 128 c2 116 1 127 -15 126 -10 -1 -153 -59 -318 -129z"/> <path d="M730 1507 l0 -924 23 -44 c13 -24 43 -57 66 -74 41 -29 47 -30 167 -33 l124 -4 2 804 3 805 30 48 c19 30 45 56 70 69 38 20 57 21 427 24 269 2 401 -1 430 -9 55 -14 122 -80 137 -134 7 -28 11 -280 11 -822 l0 -783 878 0 c831 0 879 1 918 19 49 22 97 78 113 130 17 57 15 291 -3 291 -37 0 -158 74 -206 127 -62 67 -85 112 -110 206 -10 40 -27 90 -37 112 -17 37 -18 82 -21 578 l-3 537 -1509 0 -1510 0 0 -923z m2701 663 c54 -15 101 -51 126 -95 22 -39 23 -45 23 -410 0 -365 -1 -371 -23 -410 -12 -21 -42 -53 -65 -70 l-44 -30 -456 0 c-456 0 -457 0 -499 23 -24 12 -55 41 -70 64 l-28 42 0 381 0 382 27 39 c30 43 74 73 122 85 48 11 846 10 887 -1z"/> <path d="M4245 1956 l-310 -131 -3 -128 c-1 -70 1 -127 6 -127 5 0 144 57 308 126 165 69 305 128 312 131 13 6 18 249 5 256 -5 2 -147 -55 -318 -127z"/> <path d="M4370 1564 c-96 -41 -234 -100 -307 -130 -140 -59 -150 -70 -92 -99 22 -12 78 -15 274 -15 273 0 294 4 314 61 16 46 15 259 -1 258 -7 0 -92 -34 -188 -75z"/> <path d="M4020 1141 c0 -16 73 -73 119 -94 61 -27 152 -26 217 2 47 21 114 76 114 93 0 4 -101 8 -225 8 -126 0 -225 -4 -225 -9z"/> </g> </svg>
