<svg xmlns="http://www.w3.org/2000/svg" version="1.1" xmlns:xlink="http://www.w3.org/1999/xlink" xmlns:svgjs="http://svgjs.dev/svgjs" viewBox="0 0 800 800" opacity="0.64"><defs><filter id="bbburst-blur-1" x="-100%" y="-100%" width="400%" height="400%"><feGaussianBlur in="SourceGraphic" stdDeviation="1"></feGaussianBlur></filter><filter id="bbburst-blur-2" x="-100%" y="-100%" width="400%" height="400%"><feGaussianBlur in="SourceGraphic" stdDeviation="2"></feGaussianBlur></filter><filter id="bbburst-blur-3" x="-100%" y="-100%" width="400%" height="400%"><feGaussianBlur in="SourceGraphic" stdDeviation="4"></feGaussianBlur></filter><filter id="bbburst-blur-4" x="-100%" y="-100%" width="400%" height="400%"><feGaussianBlur in="SourceGraphic" stdDeviation="12"></feGaussianBlur></filter><symbol id="bbburst-shape-1" viewBox="0 0 194 167"><path d="m97 0 96.129 166.5H.871L97 0Z"></path></symbol><symbol id="bbburst-shape-3" viewBox="0 0 131 127"><path d="m66 0 66 63.5L66 127 0 63.5 66 0Z"></path></symbol><symbol id="bbburst-shape-5" viewBox="0 0 145 145"><circle cx="72.5" cy="72.5" r="72.5"></circle></symbol><symbol id="bbburst-shape-10" viewBox="0 0 145 145"><circle cx="72.5" cy="72.5" r="61.5" fill="none" stroke-width="22"></circle></symbol><symbol id="bbburst-shape-11" viewBox="0 0 194 167"><path d="M10.398 161 97 11l86.603 150H10.397Z" stroke-width="11"></path></symbol><symbol id="bbburst-shape-13" viewBox="0 0 159 159"><path stroke-width="22" d="M11 11h137v137H11z"></path></symbol></defs><use xlink:href="#bbburst-shape-13" width="50.93864367911051" opacity="-0.0747381376728451" transform="matrix(1.377661158771618,1.079143054285224,-1.079143054285224,1.377661158771618,449.88570295717886,158.6606170932538)" fill="none" stroke="#fafafa" filter="url(#bbburst-blur-4)"></use><use xlink:href="#bbburst-shape-5" width="35.28791838815806" opacity="0.08707177150872347" transform="matrix(1.4449900580340589,-0.9871695559440268,0.9871695559440268,1.4449900580340589,-383.13069250003804,32.21910353129522)" fill="#fafafa" filter="url(#bbburst-blur-4)"></use><use xlink:href="#bbburst-shape-13" width="7.746317227240021" opacity="0.8510648336358599" transform="matrix(0.7725949530515794,0.6348992349335663,-0.6348992349335663,0.7725949530515794,665.9999239026027,23.189772355034734)" fill="none" stroke="#fafafa"></use><use xlink:href="#bbburst-shape-10" width="46.20872191193589" opacity="0.1774024149073815" transform="matrix(1.1665914516181963,0.4489592242190258,-0.4489592242190258,1.1665914516181963,831.2793309143416,166.67015853193288)" fill="none" stroke="#fafafa" filter="url(#bbburst-blur-3)"></use><use xlink:href="#bbburst-shape-10" width="11.321029828134417" opacity="0.9177930209872127" transform="matrix(0.9827552115046707,-0.1849113145819095,0.1849113145819095,0.9827552115046707,332.8391386900727,-26.920288609007798)" fill="none" stroke="#fafafa"></use><use xlink:href="#bbburst-shape-1" width="41.488147451049" opacity="0.15234512227265373" transform="matrix(0.8966840404429945,-0.8708947879134574,0.8708947879134574,0.8966840404429945,308.438959590584,-204.53287199237423)" fill="#fafafa" filter="url(#bbburst-blur-3)"></use><use xlink:href="#bbburst-shape-5" width="17.377477469392925" opacity="0.746946858593281" transform="matrix(0.9357392184291348,0.35269266379332587,-0.35269266379332587,0.9357392184291348,509.1366379940159,133.99671745249265)" fill="#fafafa" filter="url(#bbburst-blur-1)"></use><use xlink:href="#bbburst-shape-10" width="35.77914528401148" opacity="0.3203613603130515" transform="matrix(1.237637929414589,-0.17536349584325928,0.17536349584325928,1.237637929414589,385.955854844058,-387.57775375437484)" fill="none" stroke="#fafafa" filter="url(#bbburst-blur-3)"></use><use xlink:href="#bbburst-shape-5" width="10.335299295143436" opacity="0.9682007016419844" transform="matrix(0.8844205754505549,0.46669073884073325,-0.46669073884073325,0.8844205754505549,578.9639440045607,57.78055720795942)" fill="#fafafa"></use><use xlink:href="#bbburst-shape-11" width="21.139267038064208" opacity="0.6335575578365491" transform="matrix(0.8066144721777124,-0.5910779079558551,0.5910779079558551,0.8066144721777124,208.4363675142645,-72.57848774944748)" fill="none" stroke="#fafafa" filter="url(#bbburst-blur-1)"></use><use xlink:href="#bbburst-shape-10" width="32.89271970969554" opacity="0.3296049447016419" transform="matrix(1.2445891634583062,-0.11618009382916587,0.11618009382916587,1.2445891634583062,628.1467383964035,-158.63628178896494)" fill="none" stroke="#fafafa" filter="url(#bbburst-blur-3)"></use><use xlink:href="#bbburst-shape-3" width="28.443130967411754" opacity="0.4915494002782381" transform="matrix(0.9954627267477641,-0.09515229716568196,0.09515229716568196,0.9954627267477641,254.26267115855757,212.04451743447328)" fill="#fafafa" filter="url(#bbburst-blur-2)"></use><use xlink:href="#bbburst-shape-13" width="25.648045157616906" opacity="0.612201304108452" transform="matrix(0.9806688692269642,-0.1956746507064913,0.1956746507064913,0.9806688692269642,339.2186392154762,182.14191576306933)" fill="none" stroke="#fafafa" filter="url(#bbburst-blur-1)"></use><use xlink:href="#bbburst-shape-5" width="26.845182060072244" opacity="0.1858696512966933" transform="matrix(1.2090611326623792,0.31728721607585214,-0.31728721607585214,1.2090611326623792,144.62184493070697,-73.20010582515425)" fill="#fafafa" filter="url(#bbburst-blur-3)"></use><use xlink:href="#bbburst-shape-11" width="30.892015796317878" opacity="0.18990282923651536" transform="matrix(1.213728127754821,-0.2989381740373357,0.2989381740373357,1.213728127754821,269.7506387687632,-445.8087059463252)" fill="none" stroke="#fafafa" filter="url(#bbburst-blur-3)"></use><use xlink:href="#bbburst-shape-3" width="28.26439721617946" opacity="0.3438970232466445" transform="matrix(0.9357923112064384,-0.3525517696550571,0.3525517696550571,0.9357923112064384,-40.69680218711049,-41.226285071308496)" fill="#fafafa" filter="url(#bbburst-blur-2)"></use><use xlink:href="#bbburst-shape-11" width="15.638157380275654" opacity="0.8375263003454327" transform="matrix(0.9178825067809908,0.3968522442237719,-0.3968522442237719,0.9178825067809908,492.45042522762134,72.47370706641135)" fill="none" stroke="#fafafa"></use><use xlink:href="#bbburst-shape-5" width="21.10369695340056" opacity="0.7330346167280131" transform="matrix(0.9433136426718758,0.3319026537241254,-0.3319026537241254,0.9433136426718758,540.0666252261412,-99.7158148707444)" fill="#fafafa" filter="url(#bbburst-blur-1)"></use><use xlink:href="#bbburst-shape-10" width="11.556477735155802" opacity="0.8351951968683959" transform="matrix(0.889835218898958,-0.4562820215689454,0.4562820215689454,0.889835218898958,186.6888030108355,116.28518063770377)" fill="none" stroke="#fafafa"></use><use xlink:href="#bbburst-shape-1" width="15.726181849987286" opacity="0.8425071591845245" transform="matrix(0.8408766005869025,0.5412268864214109,-0.5412268864214109,0.8408766005869025,634.2253707951302,125.96533338687402)" fill="#fafafa"></use><use xlink:href="#bbburst-shape-1" width="16.540448517793966" opacity="0.7900126512033576" transform="matrix(0.9608270738461723,-0.27714857777770063,0.27714857777770063,0.9608270738461723,187.9188808328284,33.07348787682258)" fill="#fafafa"></use><use xlink:href="#bbburst-shape-3" width="11.546878765051655" opacity="0.9072464868693468" transform="matrix(0.9866280363943705,0.16298809097780334,-0.16298809097780334,0.9866280363943705,429.82544572460677,33.798054320138306)" fill="#fafafa"></use><use xlink:href="#bbburst-shape-5" width="24.20018417147611" opacity="0.17290619805129648" transform="matrix(1.231135804764616,-0.2163437778781294,0.2163437778781294,1.231135804764616,352.4923629200457,278.4282398547009)" fill="#fafafa" filter="url(#bbburst-blur-3)"></use><use xlink:href="#bbburst-shape-3" width="40.570643316990115" opacity="0.4460091408170642" transform="matrix(0.9978840710372431,-0.0650183110372636,0.0650183110372636,0.9978840710372431,432.098825613642,238.78835251202213)" fill="#fafafa" filter="url(#bbburst-blur-2)"></use><use xlink:href="#bbburst-shape-10" width="36.91708775033547" opacity="0.5249015655308351" transform="matrix(0.9540376746153846,0.29968669542452103,-0.29968669542452103,0.9540376746153846,703.3761574928878,85.3935673809221)" fill="none" stroke="#fafafa" filter="url(#bbburst-blur-2)"></use><use xlink:href="#bbburst-shape-10" width="12.795098408595305" opacity="0.9419602295280158" transform="matrix(0.9217134458858486,0.3878715298565168,-0.3878715298565168,0.9217134458858486,523.3092269981342,25.812925191930333)" fill="none" stroke="#fafafa"></use><use xlink:href="#bbburst-shape-13" width="24.556545034100566" opacity="0.5540278492154381" transform="matrix(0.8440933452910963,-0.5361962555215078,0.5361962555215078,0.8440933452910963,35.33037208396695,-75.01152887004088)" fill="none" stroke="#fafafa" filter="url(#bbburst-blur-2)"></use><use xlink:href="#bbburst-shape-10" width="28.394226398046087" opacity="0.4873320632950707" transform="matrix(0.8406047926062264,-0.5416489477950114,0.5416489477950114,0.8406047926062264,158.93937890542225,301.81140111043345)" fill="none" stroke="#fafafa" filter="url(#bbburst-blur-2)"></use><use xlink:href="#bbburst-shape-11" width="29.473339076792747" opacity="0.3319761354637516" transform="matrix(1.2085383676335812,0.3192726326473325,-0.3192726326473325,1.2085383676335812,414.4971206348653,196.45060959710918)" fill="none" stroke="#fafafa" filter="url(#bbburst-blur-3)"></use><use xlink:href="#bbburst-shape-13" width="37.6822731257441" opacity="0.047749208286194555" transform="matrix(1.5594253927541752,0.7941614725189621,-0.7941614725189621,1.5594253927541752,450.84914128762455,-595.4519040728707)" fill="none" stroke="#fafafa" filter="url(#bbburst-blur-4)"></use><use xlink:href="#bbburst-shape-11" width="15.109997854452349" opacity="0.9206792564282174" transform="matrix(0.8564143066597238,0.5162891973967154,-0.5162891973967154,0.8564143066597238,635.7169477700935,50.40162869243068)" fill="none" stroke="#fafafa"></use><use xlink:href="#bbburst-shape-3" width="35.180126897578866" opacity="0.31696499358957375" transform="matrix(1.2315802492881998,-0.2137991804549676,0.2137991804549676,1.2315802492881998,295.35846182170434,218.51117817672048)" fill="#fafafa" filter="url(#bbburst-blur-3)"></use><use xlink:href="#bbburst-shape-5" width="34.36233988963882" opacity="0.4378218496031757" transform="matrix(0.8403639291464192,-0.5420225701846669,0.5420225701846669,0.8403639291464192,-71.41278139075521,152.66276982012636)" fill="#fafafa" filter="url(#bbburst-blur-2)"></use><use xlink:href="#bbburst-shape-3" width="17.43417762290184" opacity="0.6856843285871044" transform="matrix(0.9837052356378967,0.17978879102599876,-0.17978879102599876,0.9837052356378967,423.85094377981267,-130.89795337914205)" fill="#fafafa" filter="url(#bbburst-blur-1)"></use><use xlink:href="#bbburst-shape-3" width="31.239326266961015" opacity="0.5059042288242351" transform="matrix(0.8589495433892435,0.5120602326986642,-0.5120602326986642,0.8589495433892435,394.7408568700127,-55.5569134051392)" fill="#fafafa" filter="url(#bbburst-blur-2)"></use><use xlink:href="#bbburst-shape-10" width="11.26862777900226" opacity="0.9739159337529142" transform="matrix(0.9671492281463102,-0.2542093045031914,0.2542093045031914,0.9671492281463102,296.74939512914636,3.4954078105709527)" fill="none" stroke="#fafafa"></use><use xlink:href="#bbburst-shape-11" width="34.818000162909044" opacity="0.5065168508098044" transform="matrix(0.7585309887618057,-0.6516369687855634,0.6516369687855634,0.7585309887618057,-23.525002603053764,271.9137748103975)" fill="none" stroke="#fafafa" filter="url(#bbburst-blur-2)"></use><use xlink:href="#bbburst-shape-10" width="35.54722330229054" opacity="0.039274929223371724" transform="matrix(1.7184855564480792,0.3306166848169274,-0.3306166848169274,1.7184855564480792,743.6037985849778,-651.5859995676614)" fill="none" stroke="#fafafa" filter="url(#bbburst-blur-4)"></use><use xlink:href="#bbburst-shape-11" width="30.99236790809448" opacity="0.42319706229789" transform="matrix(0.7883868726085801,-0.615179761613191,0.615179761613191,0.7883868726085801,267.17723036308183,-133.22391264283493)" fill="none" stroke="#fafafa" filter="url(#bbburst-blur-2)"></use><use xlink:href="#bbburst-shape-11" width="37.834475932413326" opacity="0.36578293312698995" transform="matrix(0.9417648464196651,-0.33627217257475345,0.33627217257475345,0.9417648464196651,16.874461290626584,197.29846415937152)" fill="none" stroke="#fafafa" filter="url(#bbburst-blur-2)"></use><use xlink:href="#bbburst-shape-13" width="35.908534895125335" opacity="0.07585133040217484" transform="matrix(1.2586281880497123,1.2158762618978536,-1.2158762618978536,1.2586281880497123,641.915834141577,226.4765198205265)" fill="none" stroke="#fafafa" filter="url(#bbburst-blur-4)"></use><use xlink:href="#bbburst-shape-3" width="41.06419173736127" opacity="0.15881521269300014" transform="matrix(1.18111597095722,-0.40922495421196303,0.40922495421196303,1.18111597095722,-72.9040394453064,185.3967373389097)" fill="#fafafa" filter="url(#bbburst-blur-3)"></use><use xlink:href="#bbburst-shape-1" width="18.299879008627926" opacity="0.7571811136303987" transform="matrix(0.9328307613815068,0.3603148215386072,-0.3603148215386072,0.9328307613815068,605.0204090578258,107.96060966555808)" fill="#fafafa" filter="url(#bbburst-blur-1)"></use><use xlink:href="#bbburst-shape-10" width="23.65912321339702" opacity="0.6612834200025548" transform="matrix(0.8773819979627876,-0.47979248602997826,0.47979248602997826,0.8773819979627876,77.51314208339505,148.46070827289856)" fill="none" stroke="#fafafa" filter="url(#bbburst-blur-1)"></use><use xlink:href="#bbburst-shape-13" width="32.247845793495635" opacity="0.16760617869731476" transform="matrix(1.0154971918654374,0.7288795876641153,-0.7288795876641153,1.0154971918654374,584.1645607583506,345.40068769032524)" fill="none" stroke="#fafafa" filter="url(#bbburst-blur-3)"></use><use xlink:href="#bbburst-shape-5" width="32.0048345615244" opacity="0.4880502597917591" transform="matrix(0.9866636486831958,0.16277236979034035,-0.16277236979034035,0.9866636486831958,221.32235778483735,-30.297939802207168)" fill="#fafafa" filter="url(#bbburst-blur-2)"></use><use xlink:href="#bbburst-shape-10" width="14.211597111113738" opacity="0.7732934733374454" transform="matrix(0.9994240045352317,-0.03393610405985339,0.03393610405985339,0.9994240045352317,294.6121360491098,-56.37548878629286)" fill="none" stroke="#fafafa" filter="url(#bbburst-blur-1)"></use><use xlink:href="#bbburst-shape-1" width="10.152444451296079" opacity="0.8936109251294622" transform="matrix(0.7820633472884366,0.6231989416133552,-0.6231989416133552,0.7820633472884366,641.1470726421493,131.71589378395078)" fill="#fafafa"></use><use xlink:href="#bbburst-shape-10" width="24.679519362743292" opacity="0.6323836644697064" transform="matrix(0.7100496011696725,-0.704151662554871,0.704151662554871,0.7100496011696725,268.5413276793123,78.87936831129952)" fill="none" stroke="#fafafa" filter="url(#bbburst-blur-1)"></use><use xlink:href="#bbburst-shape-11" width="34.90637546385123" opacity="0.19842892260189826" transform="matrix(0.8867231918896802,0.8810346082674491,-0.8810346082674491,0.8867231918896802,1093.3929972522326,87.25430380838424)" fill="none" stroke="#fafafa" filter="url(#bbburst-blur-3)"></use><use xlink:href="#bbburst-shape-10" width="32.408467344565686" opacity="0.3216283066624256" transform="matrix(1.1812449511083027,-0.40885249844062743,0.40885249844062743,1.1812449511083027,400.4343970187981,178.37380031142442)" fill="none" stroke="#fafafa" filter="url(#bbburst-blur-3)"></use><use xlink:href="#bbburst-shape-10" width="28.62153668587271" opacity="0.4992205137669592" transform="matrix(0.9962858840417325,-0.08610712664572874,0.08610712664572874,0.9962858840417325,404.51933251654344,-216.25840481851998)" fill="none" stroke="#fafafa" filter="url(#bbburst-blur-2)"></use><use xlink:href="#bbburst-shape-13" width="26.292435606520627" opacity="0.3316114330988219" transform="matrix(1.1339897142238946,-0.5258966895069884,0.5258966895069884,1.1339897142238946,431.5937541095575,-203.1700745926956)" fill="none" stroke="#fafafa" filter="url(#bbburst-blur-3)"></use><use xlink:href="#bbburst-shape-1" width="24.682012103280442" opacity="0.17632073972999684" transform="matrix(1.2353269008406005,0.19096452042082862,-0.19096452042082862,1.2353269008406005,827.6406534179628,-151.7555690343333)" fill="#fafafa" filter="url(#bbburst-blur-3)"></use><use xlink:href="#bbburst-shape-13" width="15.41561132154595" opacity="0.7593733861306214" transform="matrix(0.8148571701437537,-0.5796617912760109,0.5796617912760109,0.8148571701437537,95.78813273598371,164.31676086445088)" fill="none" stroke="#fafafa" filter="url(#bbburst-blur-1)"></use><use xlink:href="#bbburst-shape-3" width="43.08049646057131" opacity="0.24979075562223596" transform="matrix(1.2499079932848884,-0.015166025271759694,0.015166025271759694,1.2499079932848884,192.78501615561925,-388.920997770627)" fill="#fafafa" filter="url(#bbburst-blur-3)"></use><use xlink:href="#bbburst-shape-5" width="19.821639496187597" opacity="0.6912240393945274" transform="matrix(0.7317074546043136,-0.6816188090688785,0.6816188090688785,0.7317074546043136,254.71890343780598,148.49342440982122)" fill="#fafafa" filter="url(#bbburst-blur-1)"></use><use xlink:href="#bbburst-shape-1" width="35.57456770933269" opacity="0.3643899423478807" transform="matrix(0.7392757204100677,0.6734028580368332,-0.6734028580368332,0.7392757204100677,656.7865346079203,-193.67830537156942)" fill="#fafafa" filter="url(#bbburst-blur-2)"></use><use xlink:href="#bbburst-shape-10" width="19.944112445823656" opacity="0.7825927286181558" transform="matrix(0.9330819796197622,0.35966375868144623,-0.35966375868144623,0.9330819796197622,621.16765129998,68.68442653228004)" fill="none" stroke="#fafafa"></use><use xlink:href="#bbburst-shape-1" width="19.830176796560934" opacity="0.5751894265721313" transform="matrix(0.9563194659400232,-0.29232358622627236,0.29232358622627236,0.9563194659400232,192.74652483199918,-152.83115864355733)" fill="#fafafa" filter="url(#bbburst-blur-1)"></use><use xlink:href="#bbburst-shape-3" width="11.598010058727862" opacity="0.8729772217974694" transform="matrix(0.9781138997915396,-0.20807017814810963,0.20807017814810963,0.9781138997915396,356.2695223451564,-25.002327605556957)" fill="#fafafa"></use><use xlink:href="#bbburst-shape-13" width="42.78916503251926" opacity="0.3282712717182874" transform="matrix(1.2479656110493969,0.07128698084577229,-0.07128698084577229,1.2479656110493969,146.74939108767856,-262.9256013384958)" fill="none" stroke="#fafafa" filter="url(#bbburst-blur-3)"></use><use xlink:href="#bbburst-shape-13" width="30.2756436989922" opacity="0.3527600104124403" transform="matrix(0.8963992973867405,-0.44324744742023947,0.44324744742023947,0.8963992973867405,-81.46967071293341,67.6993794907226)" fill="none" stroke="#fafafa" filter="url(#bbburst-blur-2)"></use><use xlink:href="#bbburst-shape-1" width="23.505757984722102" opacity="0.4369293516020003" transform="matrix(0.9736923302020956,-0.22786672882545467,0.22786672882545467,0.9736923302020956,203.7324416617217,-222.1958292461911)" fill="#fafafa" filter="url(#bbburst-blur-2)"></use><use xlink:href="#bbburst-shape-13" width="21.249091588297308" opacity="0.5752159944916753" transform="matrix(0.9504579295694695,0.31085321957238493,-0.31085321957238493,0.9504579295694695,705.390884503918,17.899322943311006)" fill="none" stroke="#fafafa" filter="url(#bbburst-blur-1)"></use><use xlink:href="#bbburst-shape-5" width="15.575468596699928" opacity="0.8773185273368345" transform="matrix(0.9799615053542517,0.19918696750497733,-0.19918696750497733,0.9799615053542517,417.31578864442156,13.723509587930891)" fill="#fafafa"></use><use xlink:href="#bbburst-shape-13" width="16.729114267241513" opacity="0.6627708654758329" transform="matrix(0.984219002796718,0.17695466801933765,-0.17695466801933765,0.984219002796718,558.5348195524967,-112.70833657829581)" fill="none" stroke="#fafafa" filter="url(#bbburst-blur-1)"></use><use xlink:href="#bbburst-shape-10" width="22.42967088141522" opacity="0.6769103924386857" transform="matrix(0.9605750618142677,0.2780207737211663,-0.2780207737211663,0.9605750618142677,358.23539969269086,42.941421770047384)" fill="none" stroke="#fafafa" filter="url(#bbburst-blur-1)"></use><use xlink:href="#bbburst-shape-13" width="29.814505571445824" opacity="0.4311229578758422" transform="matrix(0.9149363518711248,0.4035981566171449,-0.4035981566171449,0.9149363518711248,750.3631522999078,184.53837953036754)" fill="none" stroke="#fafafa" filter="url(#bbburst-blur-2)"></use><use xlink:href="#bbburst-shape-10" width="16.775923576182592" opacity="0.8149884674569079" transform="matrix(0.9591770627040659,-0.2828062276230853,0.2828062276230853,0.9591770627040659,230.80434071792556,-49.304340441288105)" fill="none" stroke="#fafafa"></use><use xlink:href="#bbburst-shape-10" width="10.256891054717231" opacity="0.8685754533034671" transform="matrix(0.9704458484832721,-0.24131899047025307,0.24131899047025307,0.9704458484832721,246.6865037143973,-15.462476895635405)" fill="none" stroke="#fafafa"></use><use xlink:href="#bbburst-shape-3" width="20.040235943811666" opacity="0.7504496470979334" transform="matrix(0.9156618555370094,0.4019494574128953,-0.4019494574128953,0.9156618555370094,573.4934233264813,139.80676986986055)" fill="#fafafa" filter="url(#bbburst-blur-1)"></use><use xlink:href="#bbburst-shape-11" width="15.310202975962708" opacity="0.7815978448777184" transform="matrix(0.8567839157856447,0.5156755973002961,-0.5156755973002961,0.8567839157856447,579.3619448737343,-42.959726596602934)" fill="none" stroke="#fafafa"></use><use xlink:href="#bbburst-shape-11" width="23.44383361173283" opacity="0.6279924882171068" transform="matrix(0.8740081590304453,0.4859112449287544,-0.4859112449287544,0.8740081590304453,550.8118329608076,208.46337398590208)" fill="none" stroke="#fafafa" filter="url(#bbburst-blur-1)"></use><use xlink:href="#bbburst-shape-11" width="42.82856606825827" opacity="0.2323798876435248" transform="matrix(1.1864805965378136,-0.39340029745702276,0.39340029745702276,1.1864805965378136,343.30312189261304,254.69334571041213)" fill="none" stroke="#fafafa" filter="url(#bbburst-blur-3)"></use><use xlink:href="#bbburst-shape-5" width="17.739533638654603" opacity="0.7520991512936785" transform="matrix(0.9569363255371792,0.29029789676709983,-0.29029789676709983,0.9569363255371792,409.08215048840344,66.92539349515215)" fill="#fafafa" filter="url(#bbburst-blur-1)"></use><use xlink:href="#bbburst-shape-3" width="14.697722855206226" opacity="0.747197887139367" transform="matrix(0.7743826956219738,-0.6327175046742783,0.6327175046742783,0.7743826956219738,204.24166855619757,0.25048301762086567)" fill="#fafafa" filter="url(#bbburst-blur-1)"></use><use xlink:href="#bbburst-shape-11" width="40.8210933846435" opacity="0.17191544661457125" transform="matrix(1.1473315575472602,0.49611520542730575,-0.49611520542730575,1.1473315575472602,219.1784710985502,-179.40788339899018)" fill="none" stroke="#fafafa" filter="url(#bbburst-blur-3)"></use><use xlink:href="#bbburst-shape-11" width="25.938736928442033" opacity="0.5574284628788105" transform="matrix(0.8389507535904405,-0.5442073438038411,0.5442073438038411,0.8389507535904405,-4.286693802907251,165.26573633630375)" fill="none" stroke="#fafafa" filter="url(#bbburst-blur-1)"></use><use xlink:href="#bbburst-shape-13" width="10.40806573441894" opacity="0.9123750982483262" transform="matrix(0.7478378061633778,-0.6638814771273154,0.6638814771273154,0.7478378061633778,108.02247634953505,71.96117677680638)" fill="none" stroke="#fafafa"></use><use xlink:href="#bbburst-shape-13" width="54.091609261821155" opacity="-0.07008780804573478" transform="matrix(1.6971267577189937,0.42692009584255425,-0.42692009584255425,1.6971267577189937,870.400694208769,44.994293374692575)" fill="none" stroke="#fafafa" filter="url(#bbburst-blur-4)"></use><use xlink:href="#bbburst-shape-10" width="21.732520056150626" opacity="0.6446774266820204" transform="matrix(0.9199140334557324,-0.3921200977394625,0.3921200977394625,0.9199140334557324,149.50918430175912,172.5658786796081)" fill="none" stroke="#fafafa" filter="url(#bbburst-blur-1)"></use><use xlink:href="#bbburst-shape-11" width="13.170480011671005" opacity="0.8317176245992632" transform="matrix(0.9996452546992911,-0.026633902402564632,0.026633902402564632,0.9996452546992911,458.47890969085773,1.1892604815560048)" fill="none" stroke="#fafafa"></use><use xlink:href="#bbburst-shape-1" width="23.855781740693285" opacity="0.47965195010759243" transform="matrix(0.9070907264080551,-0.4209351661057876,0.4209351661057876,0.9070907264080551,443.9654050359693,-28.745887852025476)" fill="#fafafa" filter="url(#bbburst-blur-2)"></use><use xlink:href="#bbburst-shape-11" width="39.87679126027793" opacity="-0.08293051788625583" transform="matrix(1.3872258255137448,1.0668198109463982,-1.0668198109463982,1.3872258255137448,451.61821818573355,-518.0136500193216)" fill="none" stroke="#fafafa" filter="url(#bbburst-blur-4)"></use><use xlink:href="#bbburst-shape-3" width="21.282085087614373" opacity="0.557696331700472" transform="matrix(0.9709973233787711,0.2390903552869964,-0.2390903552869964,0.9709973233787711,287.41371237395424,31.090757106858803)" fill="#fafafa" filter="url(#bbburst-blur-1)"></use><use xlink:href="#bbburst-shape-13" width="26.368242207536788" opacity="0.3995720992126848" transform="matrix(0.7120137990291798,-0.7021654719452066,0.7021654719452066,0.7120137990291798,-64.10693986115956,-82.37890260248261)" fill="none" stroke="#fafafa" filter="url(#bbburst-blur-2)"></use><use xlink:href="#bbburst-shape-3" width="26.606990150727025" opacity="0.5051461977780187" transform="matrix(0.9987176397299767,0.050626831741522854,-0.050626831741522854,0.9987176397299767,387.23553612567025,-221.98326152942988)" fill="#fafafa" filter="url(#bbburst-blur-2)"></use><use xlink:href="#bbburst-shape-10" width="43.46318602772958" opacity="0.2390180707254761" transform="matrix(1.0097039753061563,0.7368839001165278,-0.7368839001165278,1.0097039753061563,349.55264654306063,93.11102995624321)" fill="none" stroke="#fafafa" filter="url(#bbburst-blur-3)"></use><use xlink:href="#bbburst-shape-3" width="30.940346967409436" opacity="0.1645136735593662" transform="matrix(1.1858194685792243,0.39538865428649567,-0.39538865428649567,1.1858194685792243,883.4657880626562,-232.66694356018138)" fill="#fafafa" filter="url(#bbburst-blur-3)"></use><use xlink:href="#bbburst-shape-10" width="32.042106915784096" opacity="0.2331595642044747" transform="matrix(1.1317333601875987,0.5307349634596228,-0.5307349634596228,1.1317333601875987,766.4485987971924,-360.1886450470471)" fill="none" stroke="#fafafa" filter="url(#bbburst-blur-3)"></use><use xlink:href="#bbburst-shape-1" width="27.04659595762557" opacity="0.14574356549948642" transform="matrix(1.2468763838047106,0.08831355224476062,-0.08831355224476062,1.2468763838047106,301.92086659008,-466.22598000046673)" fill="#fafafa" filter="url(#bbburst-blur-3)"></use><use xlink:href="#bbburst-shape-11" width="35.22969745819256" opacity="0.2998725728966606" transform="matrix(1.2408730172375704,-0.150778496781631,0.150778496781631,1.2408730172375704,136.24625699348454,163.25655619953363)" fill="none" stroke="#fafafa" filter="url(#bbburst-blur-3)"></use><use xlink:href="#bbburst-shape-1" width="19.78077247009216" opacity="0.6247256195195565" transform="matrix(0.9018193453620436,0.43211325868431194,-0.43211325868431194,0.9018193453620436,399.45461181333417,-3.332817515100487)" fill="#fafafa" filter="url(#bbburst-blur-1)"></use><use xlink:href="#bbburst-shape-3" width="16.086258020907934" opacity="0.8156525572333047" transform="matrix(0.9927686622381813,0.12004325586142633,-0.12004325586142633,0.9927686622381813,358.8725845034202,-15.537290930248616)" fill="#fafafa"></use><use xlink:href="#bbburst-shape-10" width="19.6629266716625" opacity="0.6638397230823557" transform="matrix(0.8753158207348726,-0.48355166628938057,0.48355166628938057,0.8753158207348726,70.9630331531715,-27.540092183343575)" fill="none" stroke="#fafafa" filter="url(#bbburst-blur-1)"></use><use xlink:href="#bbburst-shape-11" width="37.94618324692045" opacity="0.32873056341637674" transform="matrix(0.9759447372565466,0.7810453698865707,-0.7810453698865707,0.9759447372565466,897.3609491990683,-229.2954013605079)" fill="none" stroke="#fafafa" filter="url(#bbburst-blur-3)"></use><use xlink:href="#bbburst-shape-5" width="21.58410053012436" opacity="0.7292281521256065" transform="matrix(0.729293123433842,-0.6842013885634192,0.6842013885634192,0.729293123433842,-1.4458444341629502,93.94047864509031)" fill="#fafafa" filter="url(#bbburst-blur-1)"></use><use xlink:href="#bbburst-shape-13" width="27.68311940745501" opacity="0.5548161337617543" transform="matrix(0.953542160095749,0.30125960386340045,-0.30125960386340045,0.953542160095749,622.0418920870652,-149.80835256993086)" fill="none" stroke="#fafafa" filter="url(#bbburst-blur-2)"></use><use xlink:href="#bbburst-shape-5" width="23.681426729488884" opacity="0.6244181305433989" transform="matrix(0.9999986159599373,0.0016637542516251948,-0.0016637542516251948,0.9999986159599373,386.0502942050739,-169.00821262128)" fill="#fafafa" filter="url(#bbburst-blur-1)"></use><use xlink:href="#bbburst-shape-1" width="20.018683885865727" opacity="0.7386845451142915" transform="matrix(0.9892279031266926,0.14638359086853586,-0.14638359086853586,0.9892279031266926,565.2444929585185,-12.400297245639933)" fill="#fafafa" filter="url(#bbburst-blur-1)"></use><use xlink:href="#bbburst-shape-1" width="44.67196884523073" opacity="0.31989760541203227" transform="matrix(1.0551068331329942,0.6702608228712641,-0.6702608228712641,1.0551068331329942,924.8230821112272,85.85806458592441)" fill="#fafafa" filter="url(#bbburst-blur-3)"></use><use xlink:href="#bbburst-shape-3" width="47.711350113934984" opacity="-0.093589654864499" transform="matrix(1.6203169466724265,-0.6611149615052933,0.6611149615052933,1.6203169466724265,445.6304245969101,-579.1627911435351)" fill="#fafafa" filter="url(#bbburst-blur-4)"></use><use xlink:href="#bbburst-shape-10" width="39.89293476489283" opacity="0.09837591264051859" transform="matrix(1.661359909464077,0.5498938545078627,-0.5498938545078627,1.661359909464077,946.1575248995521,-87.1150367948535)" fill="none" stroke="#fafafa" filter="url(#bbburst-blur-4)"></use><use xlink:href="#bbburst-shape-5" width="28.28119185001614" opacity="0.4737793039392404" transform="matrix(0.9991957583376894,-0.04009783684901066,0.04009783684901066,0.9991957583376894,551.4378192335543,-151.07546764183053)" fill="#fafafa" filter="url(#bbburst-blur-2)"></use><use xlink:href="#bbburst-shape-5" width="22.43498000278639" opacity="0.7115520628442604" transform="matrix(0.9375130060509628,0.34795023133386105,-0.34795023133386105,0.9375130060509628,638.3086899899163,-48.380553277248225)" fill="#fafafa" filter="url(#bbburst-blur-1)"></use><use xlink:href="#bbburst-shape-3" width="10.829348382456098" opacity="0.8691559609527058" transform="matrix(0.8801521874341726,0.47469161247576425,-0.47469161247576425,0.8801521874341726,633.5043887691572,78.83628149125468)" fill="#fafafa"></use><use xlink:href="#bbburst-shape-10" width="16.52631863236389" opacity="0.6995586420667801" transform="matrix(0.8752489566246149,-0.4836726826351918,0.4836726826351918,0.8752489566246149,119.03822722932088,-54.90060116123112)" fill="none" stroke="#fafafa" filter="url(#bbburst-blur-1)"></use><use xlink:href="#bbburst-shape-13" width="14.578349983035206" opacity="0.8029989613853266" transform="matrix(0.8774583399772222,-0.47965285530727053,0.47965285530727053,0.8774583399772222,277.43267884978457,6.361352585383145)" fill="none" stroke="#fafafa"></use><use xlink:href="#bbburst-shape-11" width="26.410734719782653" opacity="0.5268251704058446" transform="matrix(0.7527590161444158,-0.6582961822867357,0.6582961822867357,0.7527590161444158,252.47690423170008,279.0094626687082)" fill="none" stroke="#fafafa" filter="url(#bbburst-blur-2)"></use><use xlink:href="#bbburst-shape-13" width="19.149394283658527" opacity="0.6551843901654516" transform="matrix(0.7557414841104263,0.6548700704678526,-0.6548700704678526,0.7557414841104263,729.2338757716873,227.53355126494012)" fill="none" stroke="#fafafa" filter="url(#bbburst-blur-1)"></use><use xlink:href="#bbburst-shape-11" width="12.318878706358838" opacity="0.9268449901262866" transform="matrix(0.9881294473439283,0.15362355057667038,-0.15362355057667038,0.9881294473439283,474.35974268477196,30.547964997162694)" fill="none" stroke="#fafafa"></use><use xlink:href="#bbburst-shape-11" width="22.691561241052234" opacity="0.5885390890547733" transform="matrix(0.8715372364693063,0.4903293234627566,-0.4903293234627566,0.8715372364693063,741.5684334079058,-55.43755385045074)" fill="none" stroke="#fafafa" filter="url(#bbburst-blur-1)"></use><use xlink:href="#bbburst-shape-10" width="25.638032768484447" opacity="0.1413863382364361" transform="matrix(0.9081517032017021,0.8589298481085912,-0.8589298481085912,0.9081517032017021,855.2203970255431,-340.4489785328959)" fill="none" stroke="#fafafa" filter="url(#bbburst-blur-3)"></use><use xlink:href="#bbburst-shape-3" width="9.699601909490804" opacity="0.8076988518074366" transform="matrix(0.9843603565711995,-0.17616664954247482,0.17616664954247482,0.9843603565711995,361.14456383192845,-71.38077300715878)" fill="#fafafa"></use><use xlink:href="#bbburst-shape-10" width="29.4449926913377" opacity="0.6342984651856921" transform="matrix(0.9401661581782261,0.3407162969633163,-0.3407162969633163,0.9401661581782261,655.1436829842638,116.24619411540726)" fill="none" stroke="#fafafa" filter="url(#bbburst-blur-1)"></use><use xlink:href="#bbburst-shape-10" width="39.99466571499906" opacity="0.40038891481353855" transform="matrix(0.988917176229295,-0.14846824090921792,0.14846824090921792,0.988917176229295,589.9053079816043,27.595147115638156)" fill="none" stroke="#fafafa" filter="url(#bbburst-blur-2)"></use><use xlink:href="#bbburst-shape-3" width="10.304288043078309" opacity="0.862909848236885" transform="matrix(0.9400550944257507,-0.34102260840623566,0.34102260840623566,0.9400550944257507,245.61829027716294,-34.53691055917312)" fill="#fafafa"></use><use xlink:href="#bbburst-shape-11" width="25.837502495302136" opacity="0.30166049793146243" transform="matrix(1.0971597190178777,-0.5989495395812667,0.5989495395812667,1.0971597190178777,71.73977416001566,-336.83275529896633)" fill="none" stroke="#fafafa" filter="url(#bbburst-blur-3)"></use><use xlink:href="#bbburst-shape-13" width="37.86684694604025" opacity="0.07261846786956261" transform="matrix(1.534468704041818,0.841371378355732,-0.841371378355732,1.534468704041818,351.66700767591465,-447.7616055711073)" fill="none" stroke="#fafafa" filter="url(#bbburst-blur-4)"></use><use xlink:href="#bbburst-shape-10" width="42.937818722949416" opacity="0.0736328120121641" transform="matrix(1.5334718075810563,0.843186939743547,-0.843186939743547,1.5334718075810563,927.9852476175587,120.31171283912408)" fill="none" stroke="#fafafa" filter="url(#bbburst-blur-4)"></use><use xlink:href="#bbburst-shape-3" width="38.652671640017616" opacity="0.03914405422997069" transform="matrix(1.6252897712035472,0.6487936186655359,-0.6487936186655359,1.6252897712035472,987.7379360313884,-502.4370457682305)" fill="#fafafa" filter="url(#bbburst-blur-4)"></use><use xlink:href="#bbburst-shape-3" width="37.43503893119857" opacity="0.17173550293821427" transform="matrix(1.2329898630945333,-0.20551398372403712,0.20551398372403712,1.2329898630945333,23.96758931437836,-345.65983927227035)" fill="#fafafa" filter="url(#bbburst-blur-3)"></use></svg>