 <svg version="1.0" xmlns="http://www.w3.org/2000/svg"  width="512.000000pt" height="512.000000pt" viewBox="0 0 512.000000 512.000000"  preserveAspectRatio="xMidYMid meet"> <g transform="translate(0.000000,512.000000) scale(0.100000,-0.100000)" fill="#000000" stroke="none"> <path d="M4613 3968 c-6 -7 -24 -71 -42 -143 -40 -166 -110 -388 -168 -535 -161 -409 -470 -859 -658 -957 -33 -17 -211 -84 -395 -149 l-335 -118 -105 -1 c-104 0 -106 0 -200 45 -93 44 -97 45 -195 45 -94 0 -105 -3 -180 -37 -105 -48 -185 -62 -268 -48 -63 12 -579 226 -667 277 -55 32 -203 174 -281 269 -193 236 -353 558 -543 1098 -72 203 -89 232 -123 210 -17 -11 -18 -67 -18 -960 0 -1059 -4 -998 71 -1162 60 -131 176 -269 294 -349 86 -57 1466 -801 1530 -824 56 -20 84 -24 200 -23 120 0 142 3 203 26 63 24 1390 713 1541 801 81 47 202 158 262 243 51 71 96 163 127 260 22 69 22 72 25 1043 2 723 0 977 -9 987 -14 17 -53 18 -66 2z"/> <path d="M831 3699 c-23 -66 -32 -199 -21 -296 21 -173 76 -299 176 -397 252 -249 769 -335 1126 -186 178 74 324 203 401 354 l24 48 38 -69 c59 -105 196 -237 311 -295 297 -153 677 -151 1000 7 155 75 247 161 309 289 59 123 79 224 73 375 -3 64 -12 134 -19 156 -12 35 -18 40 -44 40 -25 0 -35 -9 -66 -56 -74 -111 -186 -188 -334 -231 -64 -18 -103 -22 -195 -21 -184 1 -322 52 -584 213 -135 83 -179 100 -260 100 -77 0 -152 -34 -196 -90 l-31 -39 -42 46 c-55 60 -105 83 -184 83 -82 0 -133 -20 -285 -113 -246 -151 -380 -199 -563 -200 -231 -2 -425 93 -530 258 -30 46 -40 55 -64 55 -23 0 -31 -6 -40 -31z"/> </g> </svg>
