 <svg version="1.0" xmlns="http://www.w3.org/2000/svg"  width="512.000000pt" height="512.000000pt" viewBox="0 0 512.000000 512.000000"  preserveAspectRatio="xMidYMid meet"> <g transform="translate(0.000000,512.000000) scale(0.100000,-0.100000)" fill="#000000" stroke="none"> <path d="M2775 4485 l-1360 -213 1131 -1 c767 -1 1149 -4 1190 -12 123 -22 228 -104 283 -219 l26 -55 5 -1515 c5 -1507 5 -1515 25 -1513 138 13 220 40 262 85 56 60 53 -50 53 1797 0 1174 -3 1708 -11 1728 -27 71 -120 133 -199 132 -25 -1 -657 -97 -1405 -214z"/> <path d="M1101 4090 c-50 -12 -111 -60 -135 -105 l-21 -40 -3 -1685 c-2 -1254 0 -1695 9 -1725 16 -57 43 -91 97 -122 l47 -28 1315 0 1315 0 48 28 c26 15 60 47 75 69 l27 42 0 1716 0 1716 -27 42 c-15 22 -49 54 -75 69 l-48 28 -1295 2 c-712 0 -1310 -2 -1329 -7z m1511 -775 c417 -63 628 -362 628 -891 0 -153 -16 -304 -35 -323 -29 -30 -42 -6 -49 91 -10 135 -34 289 -57 366 -45 147 -95 184 -259 190 -122 5 -228 -16 -371 -73 l-86 -35 -59 21 c-159 55 -399 80 -486 50 -81 -27 -146 -150 -188 -351 -11 -58 -25 -115 -30 -127 -10 -23 -43 -30 -68 -15 -16 10 -52 283 -54 407 -3 131 38 204 147 266 43 24 54 36 69 78 53 147 147 227 349 294 180 61 372 79 549 52z m-242 -1255 c8 0 33 3 56 6 35 5 48 1 99 -31 121 -78 214 -91 305 -45 24 12 55 20 73 18 30 -3 32 -6 35 -43 4 -60 -41 -142 -101 -182 -119 -80 -308 -64 -417 34 l-48 43 -37 -36 c-94 -88 -259 -119 -377 -70 -86 36 -149 121 -152 205 -1 45 0 46 31 49 18 2 49 -6 72 -18 91 -46 183 -34 301 40 56 35 70 40 105 35 22 -3 47 -5 55 -5z m-669 -40 c4 -8 33 -68 64 -133 48 -100 69 -131 129 -192 63 -64 83 -77 179 -119 114 -49 156 -55 214 -31 47 20 78 19 146 -5 l58 -21 122 41 c67 22 146 56 174 75 63 42 126 120 179 221 42 80 64 95 113 78 26 -10 26 -11 25 -104 -2 -301 -242 -624 -544 -731 -56 -20 -84 -23 -200 -23 -158 0 -216 15 -339 91 -185 115 -320 301 -376 518 -22 84 -32 319 -15 340 16 19 60 16 71 -5z"/> </g> </svg> 