 <svg version="1.0" xmlns="http://www.w3.org/2000/svg"  width="512.000000pt" height="512.000000pt" viewBox="0 0 512.000000 512.000000"  preserveAspectRatio="xMidYMid meet"> <g transform="translate(0.000000,512.000000) scale(0.100000,-0.100000)" fill="#000000" stroke="none"> <path d="M1480 4825 c-149 -42 -265 -136 -330 -269 -73 -147 -75 -304 -6 -448 l26 -53 -49 -49 -49 -49 -50 21 c-220 95 -427 59 -588 -102 -79 -79 -117 -149 -140 -254 -19 -91 -18 -135 6 -228 48 -188 194 -328 395 -379 76 -19 240 -19 342 0 107 21 198 19 276 -5 58 -18 232 -115 345 -192 l43 -30 -40 -43 c-100 -109 -126 -187 -116 -354 8 -137 -9 -236 -52 -312 -83 -145 -291 -365 -663 -703 -140 -128 -282 -265 -316 -305 -160 -191 -247 -419 -230 -601 11 -118 16 -126 106 -155 148 -46 276 -41 403 18 170 79 335 278 367 444 14 72 29 89 120 135 75 38 99 67 111 134 11 59 30 80 77 89 88 16 121 61 142 195 5 37 16 70 25 76 8 6 43 17 78 24 70 14 111 32 147 66 72 67 216 90 370 59 157 -32 328 -101 386 -157 l31 -29 22 27 c11 15 21 30 21 34 0 4 -160 157 -356 340 -364 340 -401 382 -392 441 2 17 83 -54 400 -350 219 -204 401 -371 406 -371 5 0 19 11 32 25 24 25 24 26 4 44 -10 10 -197 184 -414 386 -217 202 -397 371 -398 376 -2 5 5 23 15 39 l19 30 405 -376 c222 -207 413 -385 425 -395 20 -19 21 -19 47 9 l28 29 -408 380 c-224 209 -416 390 -426 401 -18 19 -18 22 -2 46 10 14 22 26 27 26 8 0 624 -569 805 -744 l53 -50 25 24 c14 13 25 28 24 34 0 6 -83 88 -184 181 -290 268 -312 289 -279 269 189 -118 309 -219 1230 -1036 528 -469 968 -859 977 -867 15 -12 21 -11 42 9 14 13 25 27 25 31 0 5 -317 419 -705 921 l-705 912 20 21 20 21 -166 154 c-155 144 -214 211 -468 525 -24 29 -30 42 -16 30 20 -16 528 -487 662 -614 l38 -35 25 24 c14 13 25 27 25 31 0 4 -204 197 -452 429 -249 232 -454 425 -456 430 -2 4 8 20 20 35 l23 27 464 -433 464 -433 24 28 c13 16 23 32 21 36 -2 4 -209 199 -461 434 l-457 427 22 29 c12 17 25 29 29 28 3 -2 204 -187 445 -412 241 -225 449 -418 462 -429 l22 -20 25 23 c14 13 25 26 25 30 0 3 -207 199 -460 435 -253 236 -460 434 -460 440 0 6 10 21 23 33 l22 21 360 -336 c198 -184 408 -380 466 -434 l106 -98 27 28 27 29 -443 412 c-244 227 -454 424 -468 436 l-25 24 27 27 c27 27 27 27 50 7 12 -10 222 -205 466 -433 l444 -414 29 29 28 29 -437 407 c-241 224 -451 421 -467 438 l-29 30 26 27 26 26 354 -330 c194 -181 405 -378 468 -436 l114 -107 23 27 c12 16 22 31 23 34 0 3 -207 198 -460 434 -253 236 -460 432 -460 435 0 4 11 17 25 30 l25 24 38 -36 c20 -19 206 -191 412 -383 206 -191 399 -371 427 -398 l53 -51 25 24 c14 13 25 27 25 31 0 6 -619 588 -910 856 -13 11 -11 16 12 39 23 24 28 25 45 13 11 -8 219 -200 461 -426 243 -227 446 -413 450 -413 5 0 19 11 32 25 l24 26 -29 28 c-17 15 -225 209 -463 431 l-433 403 28 29 27 28 56 -53 c30 -30 224 -210 430 -402 206 -192 389 -361 406 -377 l30 -28 27 28 28 29 -418 389 c-230 214 -437 407 -461 429 l-43 40 28 28 29 27 335 -312 c183 -171 389 -363 457 -426 l123 -116 29 30 28 29 -414 385 c-228 212 -433 404 -457 428 l-42 43 28 25 28 24 297 -277 c163 -153 369 -345 456 -427 l159 -149 24 29 c12 16 23 31 23 34 0 3 -203 194 -450 424 l-450 420 27 28 27 28 40 -38 c23 -21 210 -196 416 -387 206 -192 392 -364 412 -383 l38 -36 25 24 c14 13 25 27 25 31 0 4 -199 193 -442 419 -244 227 -444 417 -446 421 -5 13 49 23 74 13 13 -5 213 -186 445 -402 l421 -394 29 28 29 28 -30 31 c-28 29 -30 37 -30 102 0 80 -24 169 -63 236 -38 64 -144 158 -234 208 -101 56 -152 104 -224 210 -75 112 -200 227 -298 277 -72 35 -79 37 -176 37 -97 0 -104 -2 -178 -38 -87 -43 -45 0 -822 -835 -305 -328 -432 -458 -441 -451 -18 15 -169 239 -193 287 -38 75 -43 132 -25 286 20 166 15 287 -15 370 -40 113 -140 239 -246 309 -99 65 -280 94 -395 62z m280 -94 c77 -29 146 -85 208 -166 92 -123 116 -233 93 -432 -19 -160 -16 -260 10 -328 51 -137 405 -606 1011 -1341 249 -303 248 -301 240 -323 -3 -9 -32 -50 -64 -91 -51 -66 -58 -81 -58 -120 0 -25 8 -58 18 -75 10 -16 31 -52 47 -80 l29 -50 -30 25 c-16 14 -125 110 -243 215 -231 205 -242 220 -292 370 -20 61 -23 91 -23 235 -1 149 -3 168 -22 200 -29 49 -340 469 -500 675 -151 194 -225 272 -306 325 -55 36 -83 45 -268 90 -294 70 -469 285 -431 528 26 173 147 311 311 357 73 20 197 14 270 -14z m-855 -796 c137 -36 266 -137 323 -255 18 -36 48 -121 68 -190 48 -170 83 -238 157 -306 98 -91 535 -371 873 -559 l51 -29 6 -80 c4 -44 6 -81 4 -82 -1 -2 -158 101 -347 227 -404 269 -602 391 -685 420 -82 30 -206 36 -316 15 -108 -20 -257 -21 -334 -1 -229 60 -376 275 -336 493 46 255 287 411 536 347z m537 -105 c36 -17 125 -44 199 -61 96 -21 149 -39 188 -62 63 -38 153 -132 270 -281 76 -97 83 -109 72 -129 -7 -12 -76 -88 -154 -169 l-142 -148 -140 95 c-271 182 -301 217 -355 413 -18 64 -48 155 -67 200 l-36 84 44 44 c24 24 46 44 50 44 4 0 36 -14 71 -30z m1081 -1055 c87 -80 107 -105 105 -124 -2 -13 -10 -29 -20 -34 -18 -12 -28 -4 -186 145 l-83 78 21 30 c26 36 13 44 163 -95z m-183 -47 c44 -40 44 -40 10 -23 -57 29 -80 47 -74 56 9 14 17 10 64 -33z m-1448 -1825 c6 -16 12 -62 12 -104 1 -68 -3 -84 -34 -145 -60 -117 -160 -174 -304 -174 -97 0 -99 2 -86 87 32 232 155 360 348 362 48 1 53 -1 64 -26z"/> <path d="M1533 4630 c-63 -13 -116 -44 -161 -95 -157 -178 -46 -480 202 -551 146 -41 293 18 356 143 21 41 25 62 25 143 0 89 -2 99 -34 158 -80 147 -241 231 -388 202z m184 -106 c107 -51 169 -159 161 -279 -5 -83 -38 -133 -109 -169 -123 -61 -276 -5 -355 130 -31 53 -43 152 -24 208 42 128 187 177 327 110z"/> <path d="M3042 2197 c-13 -13 -22 -36 -22 -53 1 -78 99 -107 144 -42 22 30 20 60 -5 92 -27 35 -86 36 -117 3z"/> <path d="M748 3818 c-104 -13 -188 -71 -236 -163 -21 -41 -26 -64 -26 -125 0 -91 22 -147 86 -216 80 -87 168 -126 284 -125 132 1 230 57 283 163 118 235 -107 503 -391 466z m177 -102 c70 -32 109 -68 139 -128 46 -92 32 -191 -35 -255 -94 -89 -262 -87 -368 3 -231 198 -18 506 264 380z"/> <path d="M738 834 c-66 -20 -131 -95 -158 -181 -27 -88 -26 -93 13 -93 113 0 212 88 232 207 8 51 -1 83 -23 82 -9 0 -38 -7 -64 -15z"/> </g> </svg> 