
<svg version="1.0" xmlns="http://www.w3.org/2000/svg"
 width="512.000000pt" height="512.000000pt" viewBox="0 0 512.000000 512.000000"
 preserveAspectRatio="xMidYMid meet">

<g transform="translate(0.000000,512.000000) scale(0.100000,-0.100000)"
fill="#000000" stroke="none">
<path d="M2820 4934 c-14 -2 -68 -11 -120 -20 -132 -22 -326 -88 -515 -174
-403 -184 -491 -217 -638 -240 -100 -16 -238 -8 -342 21 -44 12 -93 22 -109
22 -35 0 -66 -34 -66 -71 0 -41 39 -161 82 -252 38 -78 40 -87 28 -115 -42
-98 -91 -262 -101 -340 -16 -124 -6 -311 26 -465 27 -130 115 -404 184 -574
40 -97 41 -100 53 -297 11 -188 11 -207 -11 -381 -32 -252 -40 -589 -17 -748
35 -236 115 -408 261 -556 96 -98 194 -168 322 -229 62 -30 84 -46 99 -72 48
-90 211 -193 369 -234 216 -55 491 -23 668 76 62 35 148 114 171 157 14 26 37
43 100 73 188 91 365 243 449 386 50 86 95 204 120 319 19 83 22 128 22 360 0
223 -4 296 -24 459 -24 185 -24 202 -13 387 l12 195 59 152 c143 370 200 610
201 838 0 169 -40 351 -108 484 -22 44 -25 61 -23 138 9 318 -267 584 -704
679 -87 19 -373 33 -435 22z m280 -154 c168 -18 358 -80 464 -153 l37 -25 -58
-45 c-246 -196 -697 -364 -1085 -406 -345 -38 -711 21 -971 156 l-52 27 80 7
c162 14 294 58 605 202 469 215 686 268 980 237z m683 -398 c15 -34 21 -68 21
-122 1 -66 -3 -84 -32 -143 -108 -218 -449 -423 -847 -507 -144 -31 -411 -38
-565 -16 -360 53 -671 192 -885 397 -79 76 -165 181 -194 237 -12 22 -9 21 41
-8 141 -84 336 -157 522 -196 165 -35 488 -44 676 -20 418 55 837 216 1107
425 l88 68 23 -34 c13 -19 33 -56 45 -81z m-2433 -491 l90 -89 0 -51 c0 -28
18 -133 39 -234 53 -244 54 -258 10 -303 -57 -61 -209 -155 -209 -129 0 2 -13
51 -29 107 -17 57 -38 144 -47 193 -21 111 -24 326 -5 410 16 72 50 185 56
185 2 0 45 -40 95 -89z m2549 -8 c46 -171 50 -317 15 -505 -25 -136 -72 -298
-86 -298 -20 0 -133 74 -180 118 -43 40 -48 49 -48 89 0 24 18 126 40 228 22
102 40 199 40 217 0 28 15 48 93 130 50 53 95 97 98 97 4 1 16 -34 28 -76z
m-2161 -261 c522 -262 1154 -267 1673 -13 100 49 101 49 94 22 -30 -118 -65
-311 -65 -356 0 -35 7 -70 19 -94 26 -50 101 -123 179 -174 62 -41 63 -42 57
-82 -2 -22 -10 -125 -15 -230 -19 -329 -28 -446 -38 -458 -6 -7 -58 -100 -117
-207 -120 -219 -164 -284 -207 -306 -37 -19 -75 -9 -296 80 -87 35 -207 76
-267 91 -96 24 -121 27 -224 22 -136 -5 -217 -27 -441 -117 -212 -84 -251 -95
-288 -76 -40 21 -87 87 -168 236 -37 69 -89 163 -116 209 l-49 85 -14 200 c-7
111 -16 260 -20 331 -3 72 -8 141 -11 155 -4 22 4 31 58 67 82 54 152 121 177
172 34 66 28 140 -38 429 -11 46 -16 82 -13 80 4 -2 63 -31 130 -66z m-118
-1940 c68 -85 117 -115 194 -120 78 -5 126 8 337 93 360 145 461 145 833 -5
205 -82 248 -94 326 -88 108 8 185 84 302 299 76 140 72 142 88 -46 54 -650
-87 -964 -525 -1171 -75 -36 -101 -54 -114 -77 -50 -96 -158 -171 -298 -209
-109 -29 -296 -29 -406 1 -139 37 -247 112 -298 208 -13 23 -39 41 -114 77
-299 141 -447 322 -510 622 -23 108 -30 349 -16 529 7 83 14 158 17 168 4 14
25 -15 72 -103 37 -67 87 -147 112 -178z"/>
<path d="M2486 1583 c-27 -14 -104 -38 -169 -55 -167 -41 -202 -60 -240 -133
-14 -27 -20 -59 -21 -100 0 -112 75 -205 189 -236 57 -16 199 -5 263 19 l52
20 53 -20 c35 -14 85 -22 152 -25 98 -5 101 -4 164 28 77 41 116 92 132 169
19 95 -19 184 -96 227 -22 12 -90 34 -152 48 -61 15 -139 40 -173 56 -75 35
-91 35 -154 2z m131 -162 c26 -10 93 -28 148 -41 122 -27 145 -40 145 -81 0
-43 -17 -69 -55 -85 -52 -21 -109 -17 -206 16 l-89 31 -89 -31 c-97 -33 -154
-37 -206 -16 -38 16 -55 42 -55 85 0 42 22 54 160 85 63 15 129 33 145 41 40
18 47 18 102 -4z"/>
</g>
</svg>
