<svg xmlns="http://www.w3.org/2000/svg" version="1.1" xmlns:xlink="http://www.w3.org/1999/xlink" xmlns:svgjs="http://svgjs.dev/svgjs" viewBox="0 0 800 800"><defs><linearGradient x1="50%" y1="0%" x2="50%" y2="100%" id="ffflurry-grad" gradientTransform="rotate(270)"><stop stop-color="#212121" stop-opacity="1" offset="0%"></stop><stop stop-color="rgba(89, 0, 255, 0.5)" stop-opacity="1" offset="45%"></stop><stop stop-color="rgba(255, 200, 0,0.5)" stop-opacity="1" offset="100%"></stop></linearGradient></defs><rect width="100%" height="100%" fill="#212121"></rect><g fill="url(#ffflurry-grad)"><rect width="185" height="1" x="380.5" y="83.5" rx="0.5" transform="rotate(311, 473, 84)" opacity="0.11"></rect><rect width="50" height="1" x="35" y="501.5" rx="0.5" transform="rotate(311, 60, 502)" opacity="0.63"></rect><rect width="104" height="1" x="218" y="354.5" rx="0.5" transform="rotate(311, 270, 355)" opacity="0.69"></rect><rect width="434" height="1" x="553" y="96.5" rx="0.5" transform="rotate(311, 770, 97)" opacity="0.90"></rect><rect width="528" height="1" x="290" y="504.5" rx="0.5" transform="rotate(311, 554, 505)" opacity="0.23"></rect><rect width="512" height="1" x="288" y="195.5" rx="0.5" transform="rotate(311, 544, 196)" opacity="0.33"></rect><rect width="115" height="1" x="-25.5" y="314.5" rx="0.5" transform="rotate(311, 32, 315)" opacity="0.86"></rect><rect width="474" height="1" x="43" y="612.5" rx="0.5" transform="rotate(311, 280, 613)" opacity="0.83"></rect><rect width="483" height="1" x="236.5" y="570.5" rx="0.5" transform="rotate(311, 478, 571)" opacity="0.98"></rect><rect width="406" height="1" x="-152" y="606.5" rx="0.5" transform="rotate(311, 51, 607)" opacity="0.94"></rect><rect width="173" height="1" x="664.5" y="214.5" rx="0.5" transform="rotate(311, 751, 215)" opacity="0.51"></rect><rect width="591" height="1" x="-236.5" y="195.5" rx="0.5" transform="rotate(311, 59, 196)" opacity="0.87"></rect><rect width="434" height="1" x="327" y="100.5" rx="0.5" transform="rotate(311, 544, 101)" opacity="0.46"></rect><rect width="592" height="1" x="-163" y="270.5" rx="0.5" transform="rotate(311, 133, 271)" opacity="0.67"></rect><rect width="372" height="1" x="-133" y="419.5" rx="0.5" transform="rotate(311, 53, 420)" opacity="0.61"></rect><rect width="790" height="1" x="-14" y="166.5" rx="0.5" transform="rotate(311, 381, 167)" opacity="0.27"></rect><rect width="382" height="1" x="408" y="568.5" rx="0.5" transform="rotate(311, 599, 569)" opacity="0.69"></rect><rect width="775" height="1" x="69.5" y="455.5" rx="0.5" transform="rotate(311, 457, 456)" opacity="0.58"></rect><rect width="307" height="1" x="563.5" y="169.5" rx="0.5" transform="rotate(311, 717, 170)" opacity="0.87"></rect><rect width="383" height="1" x="523.5" y="33.5" rx="0.5" transform="rotate(311, 715, 34)" opacity="0.88"></rect><rect width="327" height="1" x="420.5" y="747.5" rx="0.5" transform="rotate(311, 584, 748)" opacity="0.39"></rect><rect width="685" height="1" x="201.5" y="651.5" rx="0.5" transform="rotate(311, 544, 652)" opacity="0.58"></rect><rect width="145" height="1" x="192.5" y="764.5" rx="0.5" transform="rotate(311, 265, 765)" opacity="0.46"></rect><rect width="301" height="1" x="527.5" y="117.5" rx="0.5" transform="rotate(311, 678, 118)" opacity="0.34"></rect><rect width="186" height="1" x="477" y="302.5" rx="0.5" transform="rotate(311, 570, 303)" opacity="0.81"></rect><rect width="611" height="1" x="-171.5" y="745.5" rx="0.5" transform="rotate(311, 134, 746)" opacity="0.58"></rect><rect width="32" height="1" x="402" y="772.5" rx="0.5" transform="rotate(311, 418, 773)" opacity="0.28"></rect><rect width="371" height="1" x="48.5" y="446.5" rx="0.5" transform="rotate(311, 234, 447)" opacity="0.80"></rect><rect width="709" height="1" x="318.5" y="635.5" rx="0.5" transform="rotate(311, 673, 636)" opacity="0.66"></rect><rect width="432" height="1" x="71" y="246.5" rx="0.5" transform="rotate(311, 287, 247)" opacity="0.97"></rect><rect width="354" height="1" x="202" y="377.5" rx="0.5" transform="rotate(311, 379, 378)" opacity="0.11"></rect><rect width="528" height="1" x="419" y="529.5" rx="0.5" transform="rotate(311, 683, 530)" opacity="0.74"></rect><rect width="428" height="1" x="-28" y="56.5" rx="0.5" transform="rotate(311, 186, 57)" opacity="0.17"></rect><rect width="160" height="1" x="88" y="377.5" rx="0.5" transform="rotate(311, 168, 378)" opacity="0.81"></rect><rect width="476" height="1" x="-85" y="623.5" rx="0.5" transform="rotate(311, 153, 624)" opacity="0.34"></rect><rect width="337" height="1" x="286.5" y="280.5" rx="0.5" transform="rotate(311, 455, 281)" opacity="0.63"></rect><rect width="731" height="1" x="-39.5" y="500.5" rx="0.5" transform="rotate(311, 326, 501)" opacity="0.22"></rect><rect width="573" height="1" x="-227.5" y="69.5" rx="0.5" transform="rotate(311, 59, 70)" opacity="0.59"></rect><rect width="204" height="1" x="473" y="20.5" rx="0.5" transform="rotate(311, 575, 21)" opacity="0.43"></rect><rect width="135" height="1" x="469.5" y="407.5" rx="0.5" transform="rotate(311, 537, 408)" opacity="0.21"></rect><rect width="687" height="1" x="-160.5" y="166.5" rx="0.5" transform="rotate(311, 183, 167)" opacity="0.41"></rect><rect width="365" height="1" x="-139.5" y="731.5" rx="0.5" transform="rotate(311, 43, 732)" opacity="0.42"></rect><rect width="227" height="1" x="591.5" y="430.5" rx="0.5" transform="rotate(311, 705, 431)" opacity="0.76"></rect><rect width="435" height="1" x="509.5" y="351.5" rx="0.5" transform="rotate(311, 727, 352)" opacity="0.75"></rect><rect width="394" height="1" x="418" y="376.5" rx="0.5" transform="rotate(311, 615, 377)" opacity="0.53"></rect><rect width="550" height="1" x="365" y="197.5" rx="0.5" transform="rotate(311, 640, 198)" opacity="0.47"></rect><rect width="322" height="1" x="281" y="693.5" rx="0.5" transform="rotate(311, 442, 694)" opacity="0.33"></rect><rect width="502" height="1" x="88" y="710.5" rx="0.5" transform="rotate(311, 339, 711)" opacity="0.12"></rect><rect width="309" height="1" x="-52.5" y="355.5" rx="0.5" transform="rotate(311, 102, 356)" opacity="0.14"></rect><rect width="596" height="1" x="102" y="42.5" rx="0.5" transform="rotate(311, 400, 43)" opacity="0.42"></rect><rect width="319" height="1" x="15.5" y="521.5" rx="0.5" transform="rotate(311, 175, 522)" opacity="0.74"></rect><rect width="591" height="1" x="-77.5" y="697.5" rx="0.5" transform="rotate(311, 218, 698)" opacity="0.19"></rect><rect width="138" height="1" x="692" y="569.5" rx="0.5" transform="rotate(311, 761, 570)" opacity="0.85"></rect><rect width="566" height="1" x="105" y="588.5" rx="0.5" transform="rotate(311, 388, 589)" opacity="0.43"></rect><rect width="453" height="1" x="509.5" y="728.5" rx="0.5" transform="rotate(311, 736, 729)" opacity="0.47"></rect><rect width="135" height="1" x="698.5" y="283.5" rx="0.5" transform="rotate(311, 766, 284)" opacity="1.00"></rect><rect width="420" height="1" x="560" y="447.5" rx="0.5" transform="rotate(311, 770, 448)" opacity="0.99"></rect><rect width="153" height="1" x="559.5" y="461.5" rx="0.5" transform="rotate(311, 636, 462)" opacity="0.36"></rect><rect width="767" height="1" x="-87.5" y="67.5" rx="0.5" transform="rotate(311, 296, 68)" opacity="0.71"></rect><rect width="487" height="1" x="418.5" y="280.5" rx="0.5" transform="rotate(311, 662, 281)" opacity="0.08"></rect><rect width="306" height="1" x="467" y="78.5" rx="0.5" transform="rotate(311, 620, 79)" opacity="0.34"></rect></g></svg>