 <svg version="1.0" xmlns="http://www.w3.org/2000/svg"  width="512.000000pt" height="512.000000pt" viewBox="0 0 512.000000 512.000000"  preserveAspectRatio="xMidYMid meet"> <g transform="translate(0.000000,512.000000) scale(0.100000,-0.100000)" fill="#000000" stroke="none"> <path d="M2324 4675 c-278 -49 -459 -202 -515 -435 -13 -56 -19 -263 -8 -275 4 -3 47 5 95 19 220 61 412 86 664 86 257 0 472 -29 683 -91 38 -11 72 -17 75 -14 15 15 6 220 -12 279 -49 163 -152 286 -297 356 -139 66 -217 82 -424 86 -125 2 -205 -1 -261 -11z"/> <path d="M2300 3890 c-205 -27 -206 -28 -245 -84 -45 -65 -88 -176 -112 -286 -25 -117 -25 -437 0 -598 24 -149 76 -353 123 -480 l39 -104 40 6 c87 13 263 -17 382 -65 28 -11 40 -10 95 9 100 35 193 53 290 56 72 2 92 6 100 20 26 46 102 304 128 434 77 384 60 716 -49 937 -54 109 -73 125 -169 142 -92 17 -529 26 -622 13z"/> <path d="M1746 3754 c-115 -44 -301 -141 -391 -202 -65 -44 -73 -54 -115 -137 -63 -126 -85 -220 -84 -375 0 -190 50 -388 150 -599 45 -96 161 -281 176 -281 5 0 39 14 76 31 93 43 210 85 284 104 35 9 68 18 75 20 8 3 3 28 -18 86 -42 116 -95 322 -121 474 -18 107 -22 170 -22 355 -1 244 14 351 69 496 13 35 21 64 17 64 -4 -1 -47 -16 -96 -36z"/> <path d="M3264 3774 c69 -169 90 -293 90 -529 0 -280 -38 -514 -129 -790 -23 -71 -41 -131 -40 -133 1 -1 42 -13 91 -27 80 -21 161 -50 276 -99 l36 -16 60 93 c118 183 219 418 258 600 20 96 19 269 -1 355 -24 95 -85 218 -149 299 -43 53 -72 78 -128 109 -113 62 -274 133 -342 150 -26 6 -28 5 -22 -12z"/> <path d="M4070 3272 c20 -75 30 -221 20 -314 -23 -225 -136 -521 -295 -772 -51 -81 -54 -91 -38 -99 10 -5 47 -39 83 -76 163 -164 267 -498 385 -1231 15 -91 30 -169 34 -173 10 -10 10 -16 76 628 49 471 59 547 80 595 116 268 123 585 19 886 -60 176 -189 393 -308 520 -61 65 -65 67 -56 36z"/> <path d="M943 3178 c-155 -196 -252 -395 -304 -623 -19 -84 -23 -128 -22 -270 0 -150 3 -181 26 -266 14 -53 37 -125 52 -160 25 -59 33 -112 91 -649 35 -322 63 -592 64 -599 0 -10 3 -11 9 -5 5 5 19 70 31 144 120 759 231 1111 399 1276 l42 41 -56 84 c-68 101 -163 291 -204 410 -70 203 -104 448 -83 599 6 41 9 76 8 78 -2 1 -26 -25 -53 -60z"/> </g> </svg> 