 <svg version="1.0" xmlns="http://www.w3.org/2000/svg"  width="512.000000pt" height="512.000000pt" viewBox="0 0 512.000000 512.000000"  preserveAspectRatio="xMidYMid meet"> <g transform="translate(0.000000,512.000000) scale(0.100000,-0.100000)" fill="#000000" stroke="none"> <path d="M2545 4264 c-440 -33 -760 -111 -1050 -256 -162 -81 -261 -151 -370 -262 -159 -161 -214 -275 -223 -459 -10 -217 48 -406 183 -603 59 -87 181 -214 204 -214 9 0 46 20 82 44 198 133 439 229 699 278 156 30 488 32 625 4 504 -102 811 -399 890 -860 8 -49 15 -104 15 -123 0 -45 16 -73 42 -73 31 0 134 78 224 171 314 325 500 794 481 1218 -12 280 -106 494 -301 686 -230 228 -571 374 -1001 429 -122 15 -409 27 -500 20z"/> <path d="M673 3116 c-108 -118 -188 -262 -224 -406 -19 -75 -21 -102 -16 -230 7 -168 16 -241 98 -870 66 -494 70 -511 118 -495 25 8 23 0 61 240 86 540 175 886 275 1071 l33 60 -34 45 c-125 163 -208 349 -243 546 l-17 95 -51 -56z"/> <path d="M4520 2990 c-2 -187 -92 -513 -205 -740 l-32 -65 29 -85 c60 -179 138 -537 183 -845 9 -60 18 -120 20 -132 9 -38 78 -42 89 -5 15 48 66 417 77 552 15 194 6 623 -15 776 -28 199 -90 462 -131 556 l-14 33 -1 -45z"/> </g> </svg> 