 <svg version="1.0" xmlns="http://www.w3.org/2000/svg"  width="512.000000pt" height="512.000000pt" viewBox="0 0 512.000000 512.000000"  preserveAspectRatio="xMidYMid meet"> <g transform="translate(0.000000,512.000000) scale(0.100000,-0.100000)" fill="#000000" stroke="none"> <path d="M2020 4700 c-333 -46 -653 -294 -820 -634 -86 -175 -121 -337 -160 -736 -36 -381 -74 -574 -145 -756 -19 -49 -33 -96 -30 -105 8 -25 104 -88 160 -104 211 -64 469 73 586 310 53 108 83 233 114 481 38 309 56 362 141 427 69 52 140 77 222 77 141 -1 282 -93 450 -293 l65 -78 29 28 c43 41 124 172 179 288 97 207 145 410 136 580 -10 201 -67 279 -277 382 -69 34 -152 70 -185 81 -144 48 -338 69 -465 52z"/> <path d="M3008 4603 c-27 -2 -48 -7 -48 -9 0 -3 16 -25 36 -47 140 -165 163 -457 60 -783 l-33 -101 63 5 c76 6 145 -14 220 -64 92 -61 118 -139 154 -459 37 -325 92 -488 207 -614 179 -198 432 -238 602 -96 17 15 31 33 31 41 0 8 -16 60 -35 115 -60 173 -80 318 -95 702 -16 406 -45 568 -131 741 -170 341 -502 557 -873 570 -61 2 -132 2 -158 -1z"/> <path d="M3045 3486 c-43 -19 -133 -89 -166 -130 l-29 -35 172 1 c95 0 190 -3 211 -7 42 -8 41 -15 16 86 -20 80 -120 122 -204 85z"/> <path d="M2005 3471 c-47 -22 -73 -61 -82 -127 -6 -46 -6 -47 18 -40 13 3 112 9 219 13 l194 6 -63 58 c-111 103 -199 130 -286 90z"/> <path d="M1271 2196 l-83 -21 5 -350 c4 -313 7 -359 26 -433 53 -211 178 -390 356 -508 86 -58 737 -402 801 -424 131 -45 279 -45 413 0 68 22 784 390 851 437 191 131 323 342 360 573 5 36 10 210 10 388 l0 322 -28 0 c-15 0 -52 6 -82 14 -30 8 -57 12 -60 9 -3 -2 -4 -59 -2 -126 2 -97 -1 -138 -17 -200 -53 -205 -188 -340 -416 -416 -96 -32 -193 -51 -262 -51 -23 0 -79 -14 -125 -32 -112 -43 -174 -43 -283 2 -95 39 -153 38 -252 -4 -84 -35 -148 -34 -255 3 -61 21 -109 30 -183 34 -282 16 -525 152 -618 347 -58 122 -80 267 -56 370 10 44 5 91 -9 88 -4 0 -45 -10 -91 -22z"/> <path d="M2410 2156 c-20 -8 -58 -27 -85 -44 -274 -169 -498 -174 -675 -17 -90 80 -115 60 -108 -88 4 -89 9 -111 37 -169 81 -170 255 -262 496 -261 193 0 348 56 463 168 l64 63 57 -57 c113 -113 275 -173 471 -174 130 -1 207 16 303 64 158 80 248 242 234 418 -7 94 -41 107 -109 40 -89 -86 -199 -125 -328 -116 -101 7 -182 36 -325 115 -114 64 -123 67 -186 67 -51 0 -72 -4 -87 -19 -21 -18 -22 -18 -65 3 -49 24 -105 26 -157 7z"/> </g> </svg> 