<svg xmlns="http://www.w3.org/2000/svg" version="1.1" xmlns:xlink="http://www.w3.org/1999/xlink" xmlns:svgjs="http://svgjs.dev/svgjs" viewBox="0 0 800 800" opacity="0.49" width="800" height="800"><g stroke-width="2" stroke="#5800ff" fill="none"><rect width="9.736842105263158" height="9.736842105263158" x="-4.868421052631579" y="-4.868421052631579" fill="#5800ff" stroke="none"></rect><rect width="9.736842105263158" height="9.736842105263158" x="109.41729323308272" y="-4.868421052631579" fill="#5800ff" stroke="none"></rect><rect width="9.736842105263158" height="9.736842105263158" x="223.703007518797" y="-4.868421052631579" fill="#5800ff" stroke="none"></rect><rect width="9.736842105263158" height="9.736842105263158" x="337.98872180451133" y="-4.868421052631579" fill="#5800ff" stroke="none"></rect><rect width="9.736842105263158" height="9.736842105263158" x="452.2744360902256" y="-4.868421052631579" fill="#5800ff" stroke="none"></rect><rect width="9.736842105263158" height="9.736842105263158" x="566.5601503759399" y="-4.868421052631579" fill="#5800ff" stroke="none"></rect><rect width="9.736842105263158" height="9.736842105263158" x="680.8458646616542" y="-4.868421052631579" fill="#5800ff" stroke="none"></rect><rect width="9.736842105263158" height="9.736842105263158" x="795.1315789473686" y="-4.868421052631579" fill="#5800ff" stroke="none"></rect><rect width="9.736842105263158" height="9.736842105263158" x="-4.868421052631579" y="84.02046783625731" fill="#5800ff" stroke="none"></rect><rect width="9.736842105263158" height="9.736842105263158" x="109.41729323308272" y="84.02046783625731" fill="#5800ff" stroke="none"></rect><rect width="9.736842105263158" height="9.736842105263158" x="223.703007518797" y="84.02046783625731" fill="#5800ff" stroke="none"></rect><rect width="9.736842105263158" height="9.736842105263158" x="337.98872180451133" y="84.02046783625731" fill="#5800ff" stroke="none"></rect><rect width="9.736842105263158" height="9.736842105263158" x="452.2744360902256" y="84.02046783625731" fill="#5800ff" stroke="none" transform="rotate(45, 457.14285714285717, 88.88888888888889)"></rect><rect width="9.736842105263158" height="9.736842105263158" x="566.5601503759399" y="84.02046783625731" fill="#5800ff" stroke="none"></rect><rect width="9.736842105263158" height="9.736842105263158" x="680.8458646616542" y="84.02046783625731" fill="#5800ff" stroke="none"></rect><rect width="9.736842105263158" height="9.736842105263158" x="795.1315789473686" y="84.02046783625731" fill="#5800ff" stroke="none"></rect><rect width="9.736842105263158" height="9.736842105263158" x="-4.868421052631579" y="172.90935672514618" fill="#5800ff" stroke="none"></rect><rect width="9.736842105263158" height="9.736842105263158" x="109.41729323308272" y="172.90935672514618" fill="#5800ff" stroke="none"></rect><rect width="9.736842105263158" height="9.736842105263158" x="223.703007518797" y="172.90935672514618" fill="#5800ff" stroke="none" transform="rotate(45, 228.57142857142858, 177.77777777777777)"></rect><rect width="9.736842105263158" height="9.736842105263158" x="337.98872180451133" y="172.90935672514618" fill="#5800ff" stroke="none"></rect><rect width="9.736842105263158" height="9.736842105263158" x="452.2744360902256" y="172.90935672514618" fill="#5800ff" stroke="none"></rect><rect width="9.736842105263158" height="9.736842105263158" x="566.5601503759399" y="172.90935672514618" fill="#5800ff" stroke="none"></rect><rect width="9.736842105263158" height="9.736842105263158" x="680.8458646616542" y="172.90935672514618" fill="#5800ff" stroke="none" transform="rotate(45, 685.7142857142858, 177.77777777777777)"></rect><rect width="9.736842105263158" height="9.736842105263158" x="795.1315789473686" y="172.90935672514618" fill="#5800ff" stroke="none"></rect><rect width="9.736842105263158" height="9.736842105263158" x="-4.868421052631579" y="261.79824561403507" fill="#5800ff" stroke="none"></rect><rect width="9.736842105263158" height="9.736842105263158" x="109.41729323308272" y="261.79824561403507" fill="#5800ff" stroke="none" transform="rotate(45, 114.28571428571429, 266.66666666666663)"></rect><rect width="9.736842105263158" height="9.736842105263158" x="223.703007518797" y="261.79824561403507" fill="#5800ff" stroke="none"></rect><rect width="9.736842105263158" height="9.736842105263158" x="337.98872180451133" y="261.79824561403507" fill="#5800ff" stroke="none"></rect><rect width="9.736842105263158" height="9.736842105263158" x="452.2744360902256" y="261.79824561403507" fill="#5800ff" stroke="none"></rect><rect width="9.736842105263158" height="9.736842105263158" x="566.5601503759399" y="261.79824561403507" fill="#5800ff" stroke="none"></rect><rect width="9.736842105263158" height="9.736842105263158" x="680.8458646616542" y="261.79824561403507" fill="#5800ff" stroke="none"></rect><rect width="9.736842105263158" height="9.736842105263158" x="795.1315789473686" y="261.79824561403507" fill="#5800ff" stroke="none"></rect><rect width="9.736842105263158" height="9.736842105263158" x="-4.868421052631579" y="350.687134502924" fill="#5800ff" stroke="none"></rect><rect width="9.736842105263158" height="9.736842105263158" x="109.41729323308272" y="350.687134502924" fill="#5800ff" stroke="none" transform="rotate(45, 114.28571428571429, 355.55555555555554)"></rect><rect width="9.736842105263158" height="9.736842105263158" x="223.703007518797" y="350.687134502924" fill="#5800ff" stroke="none" transform="rotate(45, 228.57142857142858, 355.55555555555554)"></rect><rect width="9.736842105263158" height="9.736842105263158" x="337.98872180451133" y="350.687134502924" fill="#5800ff" stroke="none"></rect><rect width="9.736842105263158" height="9.736842105263158" x="452.2744360902256" y="350.687134502924" fill="#5800ff" stroke="none"></rect><rect width="9.736842105263158" height="9.736842105263158" x="566.5601503759399" y="350.687134502924" fill="#5800ff" stroke="none" transform="rotate(45, 571.4285714285714, 355.55555555555554)"></rect><rect width="9.736842105263158" height="9.736842105263158" x="680.8458646616542" y="350.687134502924" fill="#5800ff" stroke="none"></rect><rect width="9.736842105263158" height="9.736842105263158" x="795.1315789473686" y="350.687134502924" fill="#5800ff" stroke="none"></rect><rect width="9.736842105263158" height="9.736842105263158" x="-4.868421052631579" y="439.5760233918129" fill="#5800ff" stroke="none"></rect><rect width="9.736842105263158" height="9.736842105263158" x="109.41729323308272" y="439.5760233918129" fill="#5800ff" stroke="none"></rect><rect width="9.736842105263158" height="9.736842105263158" x="223.703007518797" y="439.5760233918129" fill="#5800ff" stroke="none"></rect><rect width="9.736842105263158" height="9.736842105263158" x="337.98872180451133" y="439.5760233918129" fill="#5800ff" stroke="none"></rect><rect width="9.736842105263158" height="9.736842105263158" x="452.2744360902256" y="439.5760233918129" fill="#5800ff" stroke="none" transform="rotate(45, 457.14285714285717, 444.44444444444446)"></rect><rect width="9.736842105263158" height="9.736842105263158" x="566.5601503759399" y="439.5760233918129" fill="#5800ff" stroke="none"></rect><rect width="9.736842105263158" height="9.736842105263158" x="680.8458646616542" y="439.5760233918129" fill="#5800ff" stroke="none"></rect><rect width="9.736842105263158" height="9.736842105263158" x="795.1315789473686" y="439.5760233918129" fill="#5800ff" stroke="none"></rect><rect width="9.736842105263158" height="9.736842105263158" x="-4.868421052631579" y="528.4649122807018" fill="#5800ff" stroke="none"></rect><rect width="9.736842105263158" height="9.736842105263158" x="109.41729323308272" y="528.4649122807018" fill="#5800ff" stroke="none"></rect><rect width="9.736842105263158" height="9.736842105263158" x="223.703007518797" y="528.4649122807018" fill="#5800ff" stroke="none" transform="rotate(45, 228.57142857142858, 533.3333333333334)"></rect><rect width="9.736842105263158" height="9.736842105263158" x="337.98872180451133" y="528.4649122807018" fill="#5800ff" stroke="none"></rect><rect width="9.736842105263158" height="9.736842105263158" x="452.2744360902256" y="528.4649122807018" fill="#5800ff" stroke="none"></rect><rect width="9.736842105263158" height="9.736842105263158" x="566.5601503759399" y="528.4649122807018" fill="#5800ff" stroke="none"></rect><rect width="9.736842105263158" height="9.736842105263158" x="680.8458646616542" y="528.4649122807018" fill="#5800ff" stroke="none"></rect><rect width="9.736842105263158" height="9.736842105263158" x="795.1315789473686" y="528.4649122807018" fill="#5800ff" stroke="none"></rect><rect width="9.736842105263158" height="9.736842105263158" x="-4.868421052631579" y="617.3538011695907" fill="#5800ff" stroke="none"></rect><rect width="9.736842105263158" height="9.736842105263158" x="109.41729323308272" y="617.3538011695907" fill="#5800ff" stroke="none"></rect><rect width="9.736842105263158" height="9.736842105263158" x="223.703007518797" y="617.3538011695907" fill="#5800ff" stroke="none"></rect><rect width="9.736842105263158" height="9.736842105263158" x="337.98872180451133" y="617.3538011695907" fill="#5800ff" stroke="none" transform="rotate(45, 342.8571428571429, 622.2222222222223)"></rect><rect width="9.736842105263158" height="9.736842105263158" x="452.2744360902256" y="617.3538011695907" fill="#5800ff" stroke="none" transform="rotate(45, 457.14285714285717, 622.2222222222223)"></rect><rect width="9.736842105263158" height="9.736842105263158" x="566.5601503759399" y="617.3538011695907" fill="#5800ff" stroke="none" transform="rotate(45, 571.4285714285714, 622.2222222222223)"></rect><rect width="9.736842105263158" height="9.736842105263158" x="680.8458646616542" y="617.3538011695907" fill="#5800ff" stroke="none" transform="rotate(45, 685.7142857142858, 622.2222222222223)"></rect><rect width="9.736842105263158" height="9.736842105263158" x="795.1315789473686" y="617.3538011695907" fill="#5800ff" stroke="none"></rect><rect width="9.736842105263158" height="9.736842105263158" x="-4.868421052631579" y="706.2426900584796" fill="#5800ff" stroke="none"></rect><rect width="9.736842105263158" height="9.736842105263158" x="109.41729323308272" y="706.2426900584796" fill="#5800ff" stroke="none"></rect><rect width="9.736842105263158" height="9.736842105263158" x="223.703007518797" y="706.2426900584796" fill="#5800ff" stroke="none" transform="rotate(45, 228.57142857142858, 711.1111111111112)"></rect><rect width="9.736842105263158" height="9.736842105263158" x="337.98872180451133" y="706.2426900584796" fill="#5800ff" stroke="none"></rect><rect width="9.736842105263158" height="9.736842105263158" x="452.2744360902256" y="706.2426900584796" fill="#5800ff" stroke="none"></rect><rect width="9.736842105263158" height="9.736842105263158" x="566.5601503759399" y="706.2426900584796" fill="#5800ff" stroke="none" transform="rotate(45, 571.4285714285714, 711.1111111111112)"></rect><rect width="9.736842105263158" height="9.736842105263158" x="680.8458646616542" y="706.2426900584796" fill="#5800ff" stroke="none"></rect><rect width="9.736842105263158" height="9.736842105263158" x="795.1315789473686" y="706.2426900584796" fill="#5800ff" stroke="none"></rect><rect width="9.736842105263158" height="9.736842105263158" x="-4.868421052631579" y="795.1315789473686" fill="#5800ff" stroke="none"></rect><rect width="9.736842105263158" height="9.736842105263158" x="109.41729323308272" y="795.1315789473686" fill="#5800ff" stroke="none"></rect><rect width="9.736842105263158" height="9.736842105263158" x="223.703007518797" y="795.1315789473686" fill="#5800ff" stroke="none"></rect><rect width="9.736842105263158" height="9.736842105263158" x="337.98872180451133" y="795.1315789473686" fill="#5800ff" stroke="none"></rect><rect width="9.736842105263158" height="9.736842105263158" x="452.2744360902256" y="795.1315789473686" fill="#5800ff" stroke="none"></rect><rect width="9.736842105263158" height="9.736842105263158" x="566.5601503759399" y="795.1315789473686" fill="#5800ff" stroke="none"></rect><rect width="9.736842105263158" height="9.736842105263158" x="680.8458646616542" y="795.1315789473686" fill="#5800ff" stroke="none"></rect><rect width="9.736842105263158" height="9.736842105263158" x="795.1315789473686" y="795.1315789473686" fill="#5800ff" stroke="none"></rect></g></svg>