 <svg version="1.0" xmlns="http://www.w3.org/2000/svg"  width="512.000000pt" height="512.000000pt" viewBox="0 0 512.000000 512.000000"  preserveAspectRatio="xMidYMid meet"> <g transform="translate(0.000000,512.000000) scale(0.100000,-0.100000)" fill="#000000" stroke="none"> <path d="M3085 4580 l-270 -270 128 -128 128 -128 -28 -54 c-50 -97 -35 -199 43 -280 l34 -36 -90 -209 -90 -210 -88 -88 c-48 -49 -161 -153 -252 -231 -324 -280 -491 -436 -933 -876 -443 -439 -655 -660 -879 -916 -125 -142 -383 -450 -441 -527 -64 -84 -49 -138 70 -246 75 -69 112 -82 165 -57 36 18 429 344 631 524 550 490 1258 1210 1729 1757 80 94 186 209 235 256 l88 86 208 88 207 89 38 -37 c76 -74 177 -88 275 -39 l56 28 128 -128 128 -128 272 272 273 273 -92 92 -92 93 -33 -32 -34 -32 -554 554 c-305 305 -555 559 -555 564 0 6 12 23 27 38 l27 28 -89 90 c-49 50 -92 90 -95 90 -3 0 -127 -121 -275 -270z m315 125 l34 -35 -214 -215 -214 -215 -38 37 -38 37 212 213 c117 117 215 213 218 213 4 0 21 -16 40 -35z m490 -820 l555 -555 -28 -27 -27 -28 -560 560 -559 559 21 23 c12 13 26 23 32 23 6 0 261 -250 566 -555z m417 -692 l-27 -28 -555 555 c-305 305 -555 559 -555 564 0 5 10 20 22 33 l22 24 560 -561 561 -560 -28 -27z m-105 -105 l-22 -23 -560 560 -559 559 21 24 22 23 560 -560 561 -561 -23 -22z m-892 677 l-24 -25 29 -30 29 -30 26 25 26 25 167 -168 168 -168 -26 -24 -25 -24 27 -28 27 -28 26 25 26 25 103 -104 103 -103 -35 -16 c-43 -21 -97 -22 -140 -3 -18 8 -181 164 -369 352 -292 294 -338 345 -347 381 -12 46 -7 84 16 122 l15 24 101 -101 101 -101 -24 -26z m56 -340 c72 -42 101 -137 74 -236 -15 -53 -76 -114 -141 -143 l-57 -24 -112 113 -112 112 23 54 c29 72 75 117 140 140 66 24 126 19 185 -16z m1159 -275 l-215 -215 -37 38 -38 37 215 215 214 215 38 -37 38 -37 -215 -216z m-1450 -80 l100 -100 -68 -67 -67 -68 -102 102 -103 103 65 65 c35 36 67 65 70 65 3 0 50 -45 105 -100z m-272 -268 l57 -58 -28 -27 -28 -27 -59 60 -59 60 24 25 c13 14 26 25 30 25 3 0 31 -26 63 -58z m-1879 -1881 l118 -118 -124 -105 c-188 -160 -360 -300 -376 -305 -17 -7 -152 124 -152 147 0 19 393 500 409 500 4 0 60 -53 125 -119z"/> </g> </svg> 