 <svg version="1.0" xmlns="http://www.w3.org/2000/svg"  width="512.000000pt" height="512.000000pt" viewBox="0 0 512.000000 512.000000"  preserveAspectRatio="xMidYMid meet"> <g transform="translate(0.000000,512.000000) scale(0.100000,-0.100000)" fill="#000000" stroke="none"> <path d="M3955 4826 c-173 -28 -372 -102 -506 -188 -112 -71 -215 -193 -455 -534 l-99 -141 -815 -750 c-663 -611 -909 -845 -1315 -1252 l-500 -501 28 -27 27 -28 98 98 97 97 43 -42 42 -43 -97 -97 -98 -98 28 -27 27 -28 98 98 98 97 44 -45 44 -45 -97 -98 -98 -98 24 -22 c13 -12 27 -22 32 -22 5 0 51 42 102 92 l93 93 42 -43 43 -42 -98 -98 -97 -97 27 -28 28 -27 97 97 98 98 42 -43 43 -42 -93 -93 c-50 -51 -92 -97 -92 -103 0 -6 11 -21 25 -34 l26 -24 97 97 97 97 43 -42 42 -43 -97 -97 -98 -98 28 -27 27 -28 98 98 97 97 43 -42 42 -43 -97 -97 -97 -97 24 -26 c13 -14 28 -25 34 -25 6 0 52 42 103 92 l93 93 42 -43 43 -42 -98 -98 -97 -97 27 -28 28 -27 97 97 98 98 42 -43 43 -42 -93 -93 c-50 -51 -92 -97 -92 -103 0 -6 10 -20 23 -32 l23 -21 560 562 c456 457 689 701 1246 1307 377 410 696 754 709 766 13 11 85 63 159 114 411 285 508 387 610 644 72 179 109 416 91 575 l-9 84 -255 255 -255 255 -138 3 c-84 2 -171 -2 -219 -10z m559 -306 l233 -235 7 -72 c18 -205 -54 -492 -173 -692 -37 -63 -192 -225 -239 -250 -19 -10 -17 -4 13 63 68 145 80 210 80 414 l0 182 -255 254 -255 254 -80 8 c-174 15 -350 -12 -506 -80 -72 -31 -77 -32 -67 -12 6 11 54 64 107 116 81 81 112 104 196 147 140 71 228 99 435 137 14 2 80 4 148 3 l122 -2 234 -235z m-661 -668 l107 -107 -158 -158 -157 -157 -110 110 -110 110 155 155 c85 85 157 155 160 155 3 0 54 -48 113 -108z m-715 -347 c45 -19 325 -294 352 -347 11 -20 22 -54 26 -75 13 -83 2 -100 -355 -546 -374 -468 -368 -462 -481 -462 -42 1 -67 7 -100 27 -64 38 -475 454 -494 500 -9 21 -16 61 -16 90 0 104 1 105 454 468 228 181 429 336 447 345 45 19 120 19 167 0z m-1585 -983 l47 -48 -70 -69 -70 -70 -52 52 -52 52 70 65 c38 36 71 65 74 66 3 0 27 -22 53 -48z m177 -317 l-70 -70 -72 72 -73 73 70 70 69 70 73 -72 73 -73 -70 -70z m205 -65 l69 -70 -69 -70 -69 -70 -73 72 -73 72 67 68 c37 38 70 68 73 68 3 0 37 -31 75 -70z m203 -203 l72 -73 -70 -69 -70 -69 -70 69 c-38 38 -70 74 -70 79 0 11 120 136 130 136 3 0 38 -33 78 -73z m-753 -32 c127 -27 206 -75 331 -199 94 -94 117 -124 152 -196 76 -153 80 -323 13 -466 -25 -54 -137 -259 -218 -402 l-25 -44 -34 33 -34 33 32 33 32 33 -27 27 -27 28 -32 -33 -32 -32 -43 42 -43 42 32 33 32 33 -29 30 -29 30 -33 -32 -33 -32 -42 42 -42 42 32 33 32 33 -27 27 -27 27 -33 -32 -33 -32 -42 42 -42 42 32 33 32 33 -30 29 -30 29 -33 -32 -33 -32 -42 43 -42 43 32 32 33 32 -28 27 -27 27 -33 -32 -33 -32 -42 43 -42 43 32 32 33 32 -28 27 -27 27 -33 -32 -33 -32 -44 45 -44 45 32 33 32 33 -27 27 -27 27 -33 -32 -33 -32 -30 29 c-17 16 -27 32 -23 36 15 13 420 218 472 239 101 39 199 47 306 25z m965 -310 c-35 -36 -69 -65 -75 -65 -6 0 -42 32 -80 70 l-69 70 69 70 70 70 75 -75 75 -75 -65 -65z m172 -41 l47 -47 -67 -74 -66 -74 -53 53 -53 52 67 68 c37 37 70 68 72 68 3 0 27 -21 53 -46z"/> <path d="M3680 3785 l-65 -65 50 -50 50 -50 65 65 65 65 -50 50 -50 50 -65 -65z"/> <path d="M3020 3419 c-30 -12 -485 -463 -506 -501 -18 -34 -18 -82 0 -116 8 -15 72 -84 143 -155 205 -203 198 -204 492 87 117 116 226 229 242 250 33 44 39 108 15 154 -21 39 -257 269 -289 281 -34 13 -64 13 -97 0z m-60 -234 l24 -25 -41 -43 c-50 -51 -63 -76 -63 -117 0 -46 24 -85 66 -105 53 -25 96 -13 156 42 l49 47 27 -28 27 -27 -56 -54 c-62 -60 -116 -81 -185 -70 -55 8 -118 54 -144 104 -24 49 -26 129 -4 174 16 31 102 127 114 127 4 0 17 -11 30 -25z"/> </g> </svg> 