<?xml version="1.0" standalone="no"?>
<!DOCTYPE svg PUBLIC "-//W3C//DTD SVG 20010904//EN"
 "http://www.w3.org/TR/2001/REC-SVG-20010904/DTD/svg10.dtd">
<svg version="1.0" xmlns="http://www.w3.org/2000/svg"
 width="512.000000pt" height="512.000000pt" viewBox="0 0 512.000000 512.000000"
 preserveAspectRatio="xMidYMid meet">

<g transform="translate(0.000000,512.000000) scale(0.100000,-0.100000)"
fill="#000000" stroke="none">
<path d="M597 4561 c-55 -11 -117 -59 -144 -110 l-23 -45 2 -1246 3 -1246 27
-41 c19 -30 159 -135 563 -424 296 -211 554 -393 574 -404 35 -20 55 -20 961
-20 906 0 926 0 961 20 20 11 278 193 574 404 404 289 544 394 563 424 l27 41
0 1256 0 1256 -27 42 c-15 22 -49 54 -75 69 l-48 28 -225 0 c-211 0 -227 -1
-265 -22 -46 -24 -76 -55 -99 -100 -14 -29 -16 -104 -16 -691 0 -405 -4 -680
-10 -713 -15 -76 -48 -122 -114 -154 l-55 -27 -3 -391 -3 -392 -27 -50 c-99
-186 -330 -244 -501 -126 -51 35 -90 83 -120 149 -21 45 -22 61 -25 430 l-3
382 -84 0 -84 0 -3 -557 c-3 -549 -3 -559 -25 -605 -79 -171 -282 -249 -450
-173 -73 32 -143 102 -176 173 -22 46 -22 56 -25 605 l-3 557 -84 0 -84 0 -3
-382 c-3 -369 -4 -385 -25 -430 -63 -138 -173 -209 -321 -209 -57 0 -85 5
-130 26 -69 32 -135 93 -170 160 l-27 50 -3 392 -3 391 -55 27 c-62 31 -97 75
-113 145 -7 28 -11 294 -11 713 0 636 -1 670 -19 705 -22 43 -52 72 -101 98
-30 16 -63 19 -235 21 -110 1 -217 -2 -238 -6z"/>
<path d="M1671 4559 c-42 -9 -79 -36 -108 -79 l-23 -33 0 -1162 0 -1162 23
-34 c35 -53 82 -79 139 -79 66 0 114 24 146 73 l27 41 0 1160 0 1161 -23 36
c-38 62 -110 93 -181 78z"/>
<path d="M2525 4560 c-46 -10 -72 -27 -102 -67 l-28 -36 -3 -1321 c-2 -908 0
-1332 8 -1358 22 -77 121 -129 203 -107 52 14 114 75 122 121 3 18 4 625 3
1349 l-3 1316 -28 36 c-43 57 -108 82 -172 67z"/>
<path d="M3372 4557 c-53 -10 -107 -62 -122 -116 -7 -27 -9 -401 -8 -1178 l3
-1139 27 -41 c67 -102 215 -99 285 6 l23 34 0 1162 0 1162 -22 33 c-46 67
-109 93 -186 77z"/>
<path d="M430 1497 c0 -152 2 -167 23 -208 20 -39 81 -85 498 -387 261 -188
492 -353 514 -365 l40 -22 1033 -3 c687 -1 1046 1 1072 8 49 13 18 -9 705 487
334 241 331 239 354 285 20 42 21 58 19 207 l-3 162 -520 -371 c-286 -205
-540 -382 -565 -395 -25 -13 -72 -28 -105 -34 -82 -15 -1788 -15 -1870 0 -33
6 -78 20 -100 31 -22 12 -274 188 -559 392 -286 204 -523 373 -528 374 -4 2
-8 -70 -8 -161z"/>
</g>
</svg>
